M48
INCH,TZ
T1C0.031
T2C0.032
T3C0.032
T4C0.039
T5C0.040
%
G90
G05
T1
X40500Y-30500
X40500Y-31500
X40500Y-32500
X40500Y-33500
X40500Y-34500
X40500Y-35500
X40500Y-36500
X40500Y-37500
X40500Y-38500
X40500Y-41500
X40500Y-42500
X40500Y-43500
X40500Y-44500
X40500Y-45500
X40500Y-46500
X40500Y-47500
X40500Y-48500
X40500Y-49500
X41500Y-30500
X41500Y-31500
X41500Y-32500
X41500Y-33500
X41500Y-34500
X41500Y-35500
X41500Y-36500
X41500Y-37500
X41500Y-38500
X41500Y-41500
X41500Y-42500
X41500Y-43500
X41500Y-44500
X41500Y-45500
X41500Y-46500
X41500Y-47500
X41500Y-48500
X41500Y-49500
X42500Y-30500
X42500Y-31500
X42500Y-32500
X42500Y-33500
X42500Y-34500
X42500Y-35500
X42500Y-36500
X42500Y-37500
X42500Y-38500
X42500Y-41500
X42500Y-42500
X42500Y-43500
X42500Y-44500
X42500Y-45500
X42500Y-46500
X42500Y-47500
X42500Y-48500
X42500Y-49500
X43500Y-30500
X43500Y-31500
X43500Y-32500
X43500Y-33500
X43500Y-34500
X43500Y-35500
X43500Y-36500
X43500Y-37500
X43500Y-38500
X43500Y-41500
X43500Y-42500
X43500Y-43500
X43500Y-44500
X43500Y-45500
X43500Y-46500
X43500Y-47500
X43500Y-48500
X43500Y-49500
X44500Y-30500
X44500Y-31500
X44500Y-32500
X44500Y-33500
X44500Y-34500
X44500Y-35500
X44500Y-36500
X44500Y-37500
X44500Y-38500
X44500Y-41500
X44500Y-42500
X44500Y-43500
X44500Y-44500
X44500Y-45500
X44500Y-46500
X44500Y-47500
X44500Y-48500
X44500Y-49500
X45500Y-30500
X45500Y-31500
X45500Y-32500
X45500Y-33500
X45500Y-34500
X45500Y-35500
X45500Y-36500
X45500Y-37500
X45500Y-38500
X45500Y-41500
X45500Y-42500
X45500Y-43500
X45500Y-44500
X45500Y-45500
X45500Y-46500
X45500Y-47500
X45500Y-48500
X45500Y-49500
X50000Y-44516
X50000Y-45500
X50686Y-36429
X51393Y-37136
X52101Y-37843
X52808Y-34308
X52808Y-38550
X53515Y-35015
X53515Y-39257
X53800Y-41700
X54222Y-35722
X54222Y-39964
X54496Y-42396
X54929Y-36429
X54929Y-40672
X55636Y-37136
X55636Y-41379
X56343Y-37843
X56343Y-42086
X57050Y-38550
X57050Y-42793
X57757Y-39257
X57757Y-43500
X58464Y-39964
X58464Y-44207
X59172Y-40672
X59172Y-44914
X59879Y-41379
X59879Y-45621
X60586Y-42086
X61293Y-42793
X62000Y-43500
X62500Y-34000
X62500Y-36559
X62500Y-40000
X63484Y-40000
T0
M30
