M48
;DRILL file {KiCad 4.0.4+e1-6308~48~ubuntu16.04.1-stable} date Thu Sep 15 18:43:13 2016
;FORMAT={2:4/ absolute / inch / suppress leading zeros}
FMAT,2
INCH,TZ
T1C0.031
T2C0.032
T3C0.032
T4C0.039
T5C0.040
%
G90
G05
M72
T1
X11186Y14071
X11893Y13364
X12601Y12657
X13308Y16192
X13308Y11950
X14015Y15485
X14015Y11243
X14722Y14778
X14722Y10536
X15429Y14071
X15429Y9828
X16136Y13364
X16136Y9121
X16843Y12657
X16843Y8414
X17550Y11950
X17550Y7707
X18257Y11243
X18257Y7000
X18964Y10536
X18964Y6293
X19672Y9828
X19672Y5586
X20379Y9121
X20379Y4879
X21086Y8414
X21793Y7707
X22500Y7000
T2
X17070Y14430
X17750Y13750
X18430Y13070
T3
X1000Y20000
X1000Y19000
X1000Y18000
X1000Y17000
X1000Y16000
X1000Y15000
X1000Y14000
X1000Y13000
X1000Y12000
X1000Y9000
X1000Y8000
X1000Y7000
X1000Y6000
X1000Y5000
X1000Y4000
X1000Y3000
X1000Y2000
X1000Y1000
X2000Y20000
X2000Y19000
X2000Y18000
X2000Y17000
X2000Y16000
X2000Y15000
X2000Y14000
X2000Y13000
X2000Y12000
X2000Y9000
X2000Y8000
X2000Y7000
X2000Y6000
X2000Y5000
X2000Y4000
X2000Y3000
X2000Y2000
X2000Y1000
X3000Y20000
X3000Y19000
X3000Y18000
X3000Y17000
X3000Y16000
X3000Y15000
X3000Y14000
X3000Y13000
X3000Y12000
X3000Y9000
X3000Y8000
X3000Y7000
X3000Y6000
X3000Y5000
X3000Y4000
X3000Y3000
X3000Y2000
X3000Y1000
X4000Y20000
X4000Y19000
X4000Y18000
X4000Y17000
X4000Y16000
X4000Y15000
X4000Y14000
X4000Y13000
X4000Y12000
X4000Y9000
X4000Y8000
X4000Y7000
X4000Y6000
X4000Y5000
X4000Y4000
X4000Y3000
X4000Y2000
X4000Y1000
X5000Y20000
X5000Y19000
X5000Y18000
X5000Y17000
X5000Y16000
X5000Y15000
X5000Y14000
X5000Y13000
X5000Y12000
X5000Y9000
X5000Y8000
X5000Y7000
X5000Y6000
X5000Y5000
X5000Y4000
X5000Y3000
X5000Y2000
X5000Y1000
X6000Y20000
X6000Y19000
X6000Y18000
X6000Y17000
X6000Y16000
X6000Y15000
X6000Y14000
X6000Y13000
X6000Y12000
X6000Y9000
X6000Y8000
X6000Y7000
X6000Y6000
X6000Y5000
X6000Y4000
X6000Y3000
X6000Y2000
X6000Y1000
X8000Y4000
X9000Y10250
X10500Y5984
X10500Y5000
X12000Y4000
X12000Y3000
X13000Y10250
X13500Y6000
X13500Y5000
X14300Y8800
X14996Y8104
X16000Y3000
X23000Y16500
X23000Y13941
X23000Y10500
X23984Y10500
T4
X8000Y8500
X8000Y1000
X9000Y8500
X9000Y1000
T5
X1000Y11000
X1000Y10000
X2000Y11000
X2000Y10000
X3000Y11000
X3000Y10000
X4000Y11000
X4000Y10000
X5000Y11000
X5000Y10000
X6000Y11000
X6000Y10000
X7000Y20000
X7000Y19000
X7000Y18000
X7000Y17000
X7000Y16000
X7000Y15000
X7000Y14000
X7000Y13000
X7000Y12000
X7000Y11000
X7000Y10000
X7000Y9000
X7000Y8000
X7000Y7000
X7000Y6000
X7000Y5000
X7000Y4000
X7000Y3000
X7000Y2000
X7000Y1000
X8000Y6000
X8000Y5000
X9000Y6000
X9000Y5000
X9400Y20000
X10400Y20000
X11400Y20000
X11500Y5000
X12400Y20000
X13000Y1000
X13400Y20000
X13700Y9550
X14000Y2000
X14000Y1000
X14400Y20000
X14900Y4000
X15000Y1000
X15400Y20000
X16000Y1000
X16400Y20000
X17000Y2150
X17000Y1000
X18000Y20000
X18000Y1000
X19000Y20000
X20000Y20000
X20000Y1000
X21000Y20000
X21000Y1000
X22000Y20000
X22000Y1000
X23000Y20000
X23000Y1000
X23750Y8500
X24000Y20000
X24000Y1000
X25000Y20000
X25000Y1000
X25500Y10500
X25500Y9500
X25500Y8500
X25500Y7500
X25500Y6500
X25500Y5500
T0
M30
