G04 #@! TF.FileFunction,Legend,Top*
%FSLAX46Y46*%
G04 Gerber Fmt 4.6, Leading zero omitted, Abs format (unit mm)*
G04 Created by KiCad (PCBNEW 4.0.3+e1-6302~38~ubuntu16.04.1-stable) date Mon Aug  8 19:29:20 2016*
%MOMM*%
%LPD*%
G01*
G04 APERTURE LIST*
%ADD10C,0.100000*%
%ADD11C,0.150000*%
G04 APERTURE END LIST*
D10*
D11*
X114554000Y-119634000D02*
X116586000Y-119634000D01*
X116586000Y-119634000D02*
X116586000Y-126746000D01*
X116586000Y-126746000D02*
X114554000Y-126746000D01*
X114554000Y-126746000D02*
X114554000Y-119634000D01*
X112014000Y-119634000D02*
X114046000Y-119634000D01*
X114046000Y-119634000D02*
X114046000Y-126746000D01*
X114046000Y-126746000D02*
X112014000Y-126746000D01*
X112014000Y-126746000D02*
X112014000Y-119634000D01*
X109474000Y-119634000D02*
X111506000Y-119634000D01*
X111506000Y-119634000D02*
X111506000Y-126746000D01*
X111506000Y-126746000D02*
X109474000Y-126746000D01*
X109474000Y-126746000D02*
X109474000Y-119634000D01*
X106934000Y-119634000D02*
X108966000Y-119634000D01*
X108966000Y-119634000D02*
X108966000Y-126746000D01*
X108966000Y-126746000D02*
X106934000Y-126746000D01*
X106934000Y-126746000D02*
X106934000Y-119634000D01*
X104394000Y-119634000D02*
X106426000Y-119634000D01*
X106426000Y-119634000D02*
X106426000Y-126746000D01*
X106426000Y-126746000D02*
X104394000Y-126746000D01*
X104394000Y-126746000D02*
X104394000Y-119634000D01*
X101854000Y-119634000D02*
X103886000Y-119634000D01*
X103886000Y-119634000D02*
X103886000Y-126746000D01*
X103886000Y-126746000D02*
X101854000Y-126746000D01*
X101854000Y-126746000D02*
X101854000Y-119634000D01*
X114554000Y-112014000D02*
X116586000Y-112014000D01*
X116586000Y-112014000D02*
X116586000Y-119126000D01*
X116586000Y-119126000D02*
X114554000Y-119126000D01*
X114554000Y-119126000D02*
X114554000Y-112014000D01*
X112014000Y-112014000D02*
X114046000Y-112014000D01*
X114046000Y-112014000D02*
X114046000Y-119126000D01*
X114046000Y-119126000D02*
X112014000Y-119126000D01*
X112014000Y-119126000D02*
X112014000Y-112014000D01*
X109474000Y-112014000D02*
X111506000Y-112014000D01*
X111506000Y-112014000D02*
X111506000Y-119126000D01*
X111506000Y-119126000D02*
X109474000Y-119126000D01*
X109474000Y-119126000D02*
X109474000Y-112014000D01*
X106934000Y-112014000D02*
X108966000Y-112014000D01*
X108966000Y-112014000D02*
X108966000Y-119126000D01*
X108966000Y-119126000D02*
X106934000Y-119126000D01*
X106934000Y-119126000D02*
X106934000Y-112014000D01*
X104394000Y-112014000D02*
X106426000Y-112014000D01*
X106426000Y-112014000D02*
X106426000Y-119126000D01*
X106426000Y-119126000D02*
X104394000Y-119126000D01*
X104394000Y-119126000D02*
X104394000Y-112014000D01*
X101854000Y-112014000D02*
X103886000Y-112014000D01*
X103886000Y-112014000D02*
X103886000Y-119126000D01*
X103886000Y-119126000D02*
X101854000Y-119126000D01*
X101854000Y-119126000D02*
X101854000Y-112014000D01*
X114554000Y-104394000D02*
X116586000Y-104394000D01*
X116586000Y-104394000D02*
X116586000Y-111506000D01*
X116586000Y-111506000D02*
X114554000Y-111506000D01*
X114554000Y-111506000D02*
X114554000Y-104394000D01*
X112014000Y-104394000D02*
X114046000Y-104394000D01*
X114046000Y-104394000D02*
X114046000Y-111506000D01*
X114046000Y-111506000D02*
X112014000Y-111506000D01*
X112014000Y-111506000D02*
X112014000Y-104394000D01*
X109474000Y-104394000D02*
X111506000Y-104394000D01*
X111506000Y-104394000D02*
X111506000Y-111506000D01*
X111506000Y-111506000D02*
X109474000Y-111506000D01*
X109474000Y-111506000D02*
X109474000Y-104394000D01*
X106934000Y-104394000D02*
X108966000Y-104394000D01*
X108966000Y-104394000D02*
X108966000Y-111506000D01*
X108966000Y-111506000D02*
X106934000Y-111506000D01*
X106934000Y-111506000D02*
X106934000Y-104394000D01*
X104394000Y-104394000D02*
X106426000Y-104394000D01*
X106426000Y-104394000D02*
X106426000Y-111506000D01*
X106426000Y-111506000D02*
X104394000Y-111506000D01*
X104394000Y-111506000D02*
X104394000Y-104394000D01*
X101854000Y-104394000D02*
X103886000Y-104394000D01*
X103886000Y-104394000D02*
X103886000Y-111506000D01*
X103886000Y-111506000D02*
X101854000Y-111506000D01*
X101854000Y-111506000D02*
X101854000Y-104394000D01*
X114554000Y-91694000D02*
X116586000Y-91694000D01*
X116586000Y-91694000D02*
X116586000Y-98806000D01*
X116586000Y-98806000D02*
X114554000Y-98806000D01*
X114554000Y-98806000D02*
X114554000Y-91694000D01*
X112014000Y-91694000D02*
X114046000Y-91694000D01*
X114046000Y-91694000D02*
X114046000Y-98806000D01*
X114046000Y-98806000D02*
X112014000Y-98806000D01*
X112014000Y-98806000D02*
X112014000Y-91694000D01*
X109474000Y-91694000D02*
X111506000Y-91694000D01*
X111506000Y-91694000D02*
X111506000Y-98806000D01*
X111506000Y-98806000D02*
X109474000Y-98806000D01*
X109474000Y-98806000D02*
X109474000Y-91694000D01*
X106934000Y-91694000D02*
X108966000Y-91694000D01*
X108966000Y-91694000D02*
X108966000Y-98806000D01*
X108966000Y-98806000D02*
X106934000Y-98806000D01*
X106934000Y-98806000D02*
X106934000Y-91694000D01*
X104394000Y-91694000D02*
X106426000Y-91694000D01*
X106426000Y-91694000D02*
X106426000Y-98806000D01*
X106426000Y-98806000D02*
X104394000Y-98806000D01*
X104394000Y-98806000D02*
X104394000Y-91694000D01*
X101854000Y-91694000D02*
X103886000Y-91694000D01*
X103886000Y-91694000D02*
X103886000Y-98806000D01*
X103886000Y-98806000D02*
X101854000Y-98806000D01*
X101854000Y-98806000D02*
X101854000Y-91694000D01*
X114554000Y-84074000D02*
X116586000Y-84074000D01*
X116586000Y-84074000D02*
X116586000Y-91186000D01*
X116586000Y-91186000D02*
X114554000Y-91186000D01*
X114554000Y-91186000D02*
X114554000Y-84074000D01*
X112014000Y-84074000D02*
X114046000Y-84074000D01*
X114046000Y-84074000D02*
X114046000Y-91186000D01*
X114046000Y-91186000D02*
X112014000Y-91186000D01*
X112014000Y-91186000D02*
X112014000Y-84074000D01*
X109474000Y-84074000D02*
X111506000Y-84074000D01*
X111506000Y-84074000D02*
X111506000Y-91186000D01*
X111506000Y-91186000D02*
X109474000Y-91186000D01*
X109474000Y-91186000D02*
X109474000Y-84074000D01*
X106934000Y-84074000D02*
X108966000Y-84074000D01*
X108966000Y-84074000D02*
X108966000Y-91186000D01*
X108966000Y-91186000D02*
X106934000Y-91186000D01*
X106934000Y-91186000D02*
X106934000Y-84074000D01*
X104394000Y-84074000D02*
X106426000Y-84074000D01*
X106426000Y-84074000D02*
X106426000Y-91186000D01*
X106426000Y-91186000D02*
X104394000Y-91186000D01*
X104394000Y-91186000D02*
X104394000Y-84074000D01*
X101854000Y-84074000D02*
X103886000Y-84074000D01*
X103886000Y-84074000D02*
X103886000Y-91186000D01*
X103886000Y-91186000D02*
X101854000Y-91186000D01*
X101854000Y-91186000D02*
X101854000Y-84074000D01*
X114554000Y-76454000D02*
X116586000Y-76454000D01*
X116586000Y-76454000D02*
X116586000Y-83566000D01*
X116586000Y-83566000D02*
X114554000Y-83566000D01*
X114554000Y-83566000D02*
X114554000Y-76454000D01*
X112014000Y-76454000D02*
X114046000Y-76454000D01*
X114046000Y-76454000D02*
X114046000Y-83566000D01*
X114046000Y-83566000D02*
X112014000Y-83566000D01*
X112014000Y-83566000D02*
X112014000Y-76454000D01*
X109474000Y-76454000D02*
X111506000Y-76454000D01*
X111506000Y-76454000D02*
X111506000Y-83566000D01*
X111506000Y-83566000D02*
X109474000Y-83566000D01*
X109474000Y-83566000D02*
X109474000Y-76454000D01*
X106934000Y-76454000D02*
X108966000Y-76454000D01*
X108966000Y-76454000D02*
X108966000Y-83566000D01*
X108966000Y-83566000D02*
X106934000Y-83566000D01*
X106934000Y-83566000D02*
X106934000Y-76454000D01*
X104394000Y-76454000D02*
X106426000Y-76454000D01*
X106426000Y-76454000D02*
X106426000Y-83566000D01*
X106426000Y-83566000D02*
X104394000Y-83566000D01*
X104394000Y-83566000D02*
X104394000Y-76454000D01*
X159007351Y-112208269D02*
X158109325Y-111310244D01*
X153810116Y-117405504D02*
X152912090Y-116507479D01*
X127215830Y-90811218D02*
X128113855Y-91709244D01*
X132413065Y-85613983D02*
X133311090Y-86512009D01*
X159007351Y-112208269D02*
X153810116Y-117405504D01*
X132413065Y-85613983D02*
X127215830Y-90811218D01*
X158109325Y-111310244D02*
X159017957Y-110401612D01*
X125750000Y-116320000D02*
X125750000Y-112320000D01*
X128250000Y-116320000D02*
X128250000Y-112320000D01*
X138684000Y-114300000D02*
G75*
G03X138684000Y-114300000I-4064000J0D01*
G01*
X158000000Y-100350000D02*
X162000000Y-100350000D01*
X158000000Y-102850000D02*
X162000000Y-102850000D01*
X120451000Y-107994000D02*
X120451000Y-107794000D01*
X120451000Y-105400000D02*
X120451000Y-105580000D01*
X123678744Y-105710357D02*
G75*
G03X120451000Y-105394000I-1727744J-1003643D01*
G01*
X123003006Y-105580932D02*
G75*
G03X120900000Y-105580000I-1052006J-1133068D01*
G01*
X120463780Y-108020726D02*
G75*
G03X123701000Y-107674000I1497220J1306726D01*
G01*
X120937111Y-107793253D02*
G75*
G03X122985000Y-107774000I1013889J1079253D01*
G01*
X123389000Y-124416000D02*
X123389000Y-124616000D01*
X123389000Y-127010000D02*
X123389000Y-126830000D01*
X120161256Y-126699643D02*
G75*
G03X123389000Y-127016000I1727744J1003643D01*
G01*
X120836994Y-126829068D02*
G75*
G03X122940000Y-126830000I1052006J1133068D01*
G01*
X123376220Y-124389274D02*
G75*
G03X120139000Y-124736000I-1497220J-1306726D01*
G01*
X122902889Y-124616747D02*
G75*
G03X120855000Y-124636000I-1013889J-1079253D01*
G01*
X134620000Y-124460000D02*
X147320000Y-124460000D01*
X147320000Y-124460000D02*
X147320000Y-127000000D01*
X147320000Y-127000000D02*
X134620000Y-127000000D01*
X131800000Y-124180000D02*
X133350000Y-124180000D01*
X134620000Y-124460000D02*
X134620000Y-127000000D01*
X133350000Y-127280000D02*
X131800000Y-127280000D01*
X131800000Y-127280000D02*
X131800000Y-124180000D01*
X152400000Y-124460000D02*
X165100000Y-124460000D01*
X165100000Y-124460000D02*
X165100000Y-127000000D01*
X165100000Y-127000000D02*
X152400000Y-127000000D01*
X149580000Y-124180000D02*
X151130000Y-124180000D01*
X152400000Y-124460000D02*
X152400000Y-127000000D01*
X151130000Y-127280000D02*
X149580000Y-127280000D01*
X149580000Y-127280000D02*
X149580000Y-124180000D01*
X163830000Y-113030000D02*
X163830000Y-100330000D01*
X163830000Y-100330000D02*
X166370000Y-100330000D01*
X166370000Y-100330000D02*
X166370000Y-113030000D01*
X163550000Y-115850000D02*
X163550000Y-114300000D01*
X163830000Y-113030000D02*
X166370000Y-113030000D01*
X166650000Y-114300000D02*
X166650000Y-115850000D01*
X166650000Y-115850000D02*
X163550000Y-115850000D01*
X162560000Y-78740000D02*
X144780000Y-78740000D01*
X144780000Y-78740000D02*
X144780000Y-76200000D01*
X144780000Y-76200000D02*
X162560000Y-76200000D01*
X165380000Y-79020000D02*
X163830000Y-79020000D01*
X162560000Y-78740000D02*
X162560000Y-76200000D01*
X163830000Y-75920000D02*
X165380000Y-75920000D01*
X165380000Y-75920000D02*
X165380000Y-79020000D01*
X140716000Y-78740000D02*
X122936000Y-78740000D01*
X122936000Y-78740000D02*
X122936000Y-76200000D01*
X122936000Y-76200000D02*
X140716000Y-76200000D01*
X143536000Y-79020000D02*
X141986000Y-79020000D01*
X140716000Y-78740000D02*
X140716000Y-76200000D01*
X141986000Y-75920000D02*
X143536000Y-75920000D01*
X143536000Y-75920000D02*
X143536000Y-79020000D01*
X137440000Y-121640000D02*
X137440000Y-123190000D01*
X134340000Y-123190000D02*
X134340000Y-121640000D01*
X134340000Y-121640000D02*
X137440000Y-121640000D01*
X134620000Y-124460000D02*
X137160000Y-124460000D01*
X145060000Y-121640000D02*
X145060000Y-123190000D01*
X141960000Y-123190000D02*
X141960000Y-121640000D01*
X141960000Y-121640000D02*
X145060000Y-121640000D01*
X142240000Y-124460000D02*
X144780000Y-124460000D01*
X121920000Y-114300000D02*
X121920000Y-111760000D01*
X121640000Y-117120000D02*
X121640000Y-115570000D01*
X121920000Y-114300000D02*
X124460000Y-114300000D01*
X124740000Y-115570000D02*
X124740000Y-117120000D01*
X124740000Y-117120000D02*
X121640000Y-117120000D01*
X124460000Y-114300000D02*
X124460000Y-111760000D01*
X124460000Y-111760000D02*
X121920000Y-111760000D01*
X119380000Y-114300000D02*
X119380000Y-111760000D01*
X119100000Y-117120000D02*
X119100000Y-115570000D01*
X119380000Y-114300000D02*
X121920000Y-114300000D01*
X122200000Y-115570000D02*
X122200000Y-117120000D01*
X122200000Y-117120000D02*
X119100000Y-117120000D01*
X121920000Y-114300000D02*
X121920000Y-111760000D01*
X121920000Y-111760000D02*
X119380000Y-111760000D01*
X104140000Y-101600000D02*
X116840000Y-101600000D01*
X116840000Y-101600000D02*
X116840000Y-104140000D01*
X116840000Y-104140000D02*
X104140000Y-104140000D01*
X101320000Y-101320000D02*
X102870000Y-101320000D01*
X104140000Y-101600000D02*
X104140000Y-104140000D01*
X102870000Y-104420000D02*
X101320000Y-104420000D01*
X101320000Y-104420000D02*
X101320000Y-101320000D01*
X119380000Y-104140000D02*
X119380000Y-127000000D01*
X119380000Y-127000000D02*
X116840000Y-127000000D01*
X116840000Y-127000000D02*
X116840000Y-104140000D01*
X119660000Y-101320000D02*
X119660000Y-102870000D01*
X119380000Y-104140000D02*
X116840000Y-104140000D01*
X116560000Y-102870000D02*
X116560000Y-101320000D01*
X116560000Y-101320000D02*
X119660000Y-101320000D01*
X104140000Y-99060000D02*
X116840000Y-99060000D01*
X116840000Y-99060000D02*
X116840000Y-101600000D01*
X116840000Y-101600000D02*
X104140000Y-101600000D01*
X101320000Y-98780000D02*
X102870000Y-98780000D01*
X104140000Y-99060000D02*
X104140000Y-101600000D01*
X102870000Y-101880000D02*
X101320000Y-101880000D01*
X101320000Y-101880000D02*
X101320000Y-98780000D01*
X119380000Y-78740000D02*
X119380000Y-101600000D01*
X119380000Y-101600000D02*
X116840000Y-101600000D01*
X116840000Y-101600000D02*
X116840000Y-78740000D01*
X119660000Y-75920000D02*
X119660000Y-77470000D01*
X119380000Y-78740000D02*
X116840000Y-78740000D01*
X116560000Y-77470000D02*
X116560000Y-75920000D01*
X116560000Y-75920000D02*
X119660000Y-75920000D01*
X133350000Y-102235000D02*
X132334000Y-102235000D01*
X132334000Y-102235000D02*
X132334000Y-103251000D01*
X132334000Y-103251000D02*
X124206000Y-103251000D01*
X124206000Y-103251000D02*
X124206000Y-101219000D01*
X124206000Y-101219000D02*
X132334000Y-101219000D01*
X132334000Y-101219000D02*
X132334000Y-102235000D01*
X132334000Y-102743000D02*
X131826000Y-103251000D01*
X123190000Y-102235000D02*
X124206000Y-102235000D01*
X130810000Y-120650000D02*
X131826000Y-120650000D01*
X131826000Y-120650000D02*
X131826000Y-119634000D01*
X131826000Y-119634000D02*
X139954000Y-119634000D01*
X139954000Y-119634000D02*
X139954000Y-121666000D01*
X139954000Y-121666000D02*
X131826000Y-121666000D01*
X131826000Y-121666000D02*
X131826000Y-120650000D01*
X131826000Y-120142000D02*
X132334000Y-119634000D01*
X140970000Y-120650000D02*
X139954000Y-120650000D01*
X120650000Y-118110000D02*
X121666000Y-118110000D01*
X121666000Y-118110000D02*
X121666000Y-117094000D01*
X121666000Y-117094000D02*
X129794000Y-117094000D01*
X129794000Y-117094000D02*
X129794000Y-119126000D01*
X129794000Y-119126000D02*
X121666000Y-119126000D01*
X121666000Y-119126000D02*
X121666000Y-118110000D01*
X121666000Y-117602000D02*
X122174000Y-117094000D01*
X130810000Y-118110000D02*
X129794000Y-118110000D01*
X157480000Y-87630000D02*
X157480000Y-91440000D01*
X157480000Y-91440000D02*
X160020000Y-91440000D01*
X160020000Y-91440000D02*
X160020000Y-87630000D01*
X160020000Y-87630000D02*
X157480000Y-87630000D01*
X141384661Y-90729949D02*
X141526549Y-90304285D01*
X141526549Y-90304285D02*
X141878575Y-89808575D01*
X141878575Y-89808575D02*
X142304239Y-89526595D01*
X142304239Y-89526595D02*
X143080133Y-89314661D01*
X143080133Y-89314661D02*
X143789574Y-89456549D01*
X143789574Y-89456549D02*
X144355330Y-89738529D01*
X144355330Y-89738529D02*
X149021471Y-94404670D01*
X149021471Y-94404670D02*
X149375293Y-95042268D01*
X149375293Y-95042268D02*
X149445339Y-95536182D01*
X149445339Y-95536182D02*
X149375293Y-96173781D01*
X149375293Y-96173781D02*
X149093313Y-96739537D01*
X149093313Y-96739537D02*
X148739491Y-97093359D01*
X148739491Y-97093359D02*
X148243781Y-97305293D01*
X148243781Y-97305293D02*
X147466090Y-97375339D01*
X147466090Y-97375339D02*
X146900334Y-97233451D01*
X146900334Y-97233451D02*
X146474670Y-96951471D01*
X146404624Y-96881425D02*
X141736687Y-92213488D01*
X141736687Y-92213488D02*
X141526549Y-91859666D01*
X141526549Y-91859666D02*
X141384661Y-91293910D01*
X141384661Y-91293910D02*
X141384661Y-90586265D01*
X146023861Y-97247819D02*
X146383072Y-97538780D01*
X146383072Y-97538780D02*
X146744078Y-97741733D01*
X146744078Y-97741733D02*
X147203867Y-97892602D01*
X147203867Y-97892602D02*
X147572058Y-97933911D01*
X147572058Y-97933911D02*
X148053399Y-97919542D01*
X148053399Y-97919542D02*
X148638912Y-97743529D01*
X148638912Y-97743529D02*
X149154379Y-97411260D01*
X149154379Y-97411260D02*
X149515385Y-97050254D01*
X149515385Y-97050254D02*
X149890760Y-96434208D01*
X149890760Y-96434208D02*
X150025463Y-95735544D01*
X150025463Y-95735544D02*
X149962602Y-95148235D01*
X149962602Y-95148235D02*
X149811733Y-94702815D01*
X149811733Y-94702815D02*
X149606984Y-94271762D01*
X149606984Y-94271762D02*
X149317819Y-93939493D01*
X143972771Y-88903365D02*
X143548903Y-88792010D01*
X143548903Y-88792010D02*
X143125035Y-88763273D01*
X143125035Y-88763273D02*
X142713739Y-88818951D01*
X142713739Y-88818951D02*
X142112062Y-88996760D01*
X142112062Y-88996760D02*
X141702562Y-89251799D01*
X141702562Y-89251799D02*
X141363108Y-89562516D01*
X141363108Y-89562516D02*
X141100885Y-89950463D01*
X141100885Y-89950463D02*
X140917688Y-90403068D01*
X140917688Y-90403068D02*
X140840458Y-90990377D01*
X140840458Y-90990377D02*
X140862010Y-91464534D01*
X140862010Y-91464534D02*
X140973365Y-91902771D01*
X140973365Y-91902771D02*
X141178115Y-92305086D01*
X141178115Y-92305086D02*
X141442135Y-92666093D01*
X149325004Y-93961046D02*
X144763033Y-89399075D01*
X144763033Y-89399075D02*
X144439744Y-89129668D01*
X144439744Y-89129668D02*
X143972771Y-88903365D01*
X146031046Y-97255004D02*
X141469075Y-92693033D01*
X136878553Y-104630786D02*
X139706981Y-107459214D01*
X135110786Y-106398553D02*
X137939214Y-109226981D01*
X101854000Y-76454000D02*
X103886000Y-76454000D01*
X103886000Y-76454000D02*
X103886000Y-83566000D01*
X103886000Y-83566000D02*
X101854000Y-83566000D01*
X101854000Y-83566000D02*
X101854000Y-76454000D01*
X160800708Y-115191249D02*
X160093601Y-114484142D01*
X161474143Y-114383127D02*
X161474143Y-114450471D01*
X161406800Y-114585158D01*
X161339456Y-114652501D01*
X161204769Y-114719845D01*
X161070082Y-114719845D01*
X160969067Y-114686173D01*
X160800708Y-114585158D01*
X160699692Y-114484142D01*
X160598677Y-114315784D01*
X160565005Y-114214769D01*
X160565005Y-114080082D01*
X160632350Y-113945394D01*
X160699693Y-113878051D01*
X160834380Y-113810707D01*
X160901723Y-113810707D01*
X162214922Y-113777036D02*
X161810860Y-114181097D01*
X162012891Y-113979067D02*
X161305784Y-113271960D01*
X161339456Y-113440319D01*
X161339456Y-113575005D01*
X161305784Y-113676021D01*
X126595143Y-111164666D02*
X126642762Y-111212285D01*
X126690381Y-111355142D01*
X126690381Y-111450380D01*
X126642762Y-111593238D01*
X126547524Y-111688476D01*
X126452286Y-111736095D01*
X126261810Y-111783714D01*
X126118952Y-111783714D01*
X125928476Y-111736095D01*
X125833238Y-111688476D01*
X125738000Y-111593238D01*
X125690381Y-111450380D01*
X125690381Y-111355142D01*
X125738000Y-111212285D01*
X125785619Y-111164666D01*
X126690381Y-110212285D02*
X126690381Y-110783714D01*
X126690381Y-110498000D02*
X125690381Y-110498000D01*
X125833238Y-110593238D01*
X125928476Y-110688476D01*
X125976095Y-110783714D01*
X137009143Y-114466666D02*
X137056762Y-114514285D01*
X137104381Y-114657142D01*
X137104381Y-114752380D01*
X137056762Y-114895238D01*
X136961524Y-114990476D01*
X136866286Y-115038095D01*
X136675810Y-115085714D01*
X136532952Y-115085714D01*
X136342476Y-115038095D01*
X136247238Y-114990476D01*
X136152000Y-114895238D01*
X136104381Y-114752380D01*
X136104381Y-114657142D01*
X136152000Y-114514285D01*
X136199619Y-114466666D01*
X136199619Y-114085714D02*
X136152000Y-114038095D01*
X136104381Y-113942857D01*
X136104381Y-113704761D01*
X136152000Y-113609523D01*
X136199619Y-113561904D01*
X136294857Y-113514285D01*
X136390095Y-113514285D01*
X136532952Y-113561904D01*
X137104381Y-114133333D01*
X137104381Y-113514285D01*
X134691429Y-117726412D02*
X134691429Y-116964507D01*
X135072381Y-117345459D02*
X134310476Y-117345459D01*
X159833334Y-99457143D02*
X159785715Y-99504762D01*
X159642858Y-99552381D01*
X159547620Y-99552381D01*
X159404762Y-99504762D01*
X159309524Y-99409524D01*
X159261905Y-99314286D01*
X159214286Y-99123810D01*
X159214286Y-98980952D01*
X159261905Y-98790476D01*
X159309524Y-98695238D01*
X159404762Y-98600000D01*
X159547620Y-98552381D01*
X159642858Y-98552381D01*
X159785715Y-98600000D01*
X159833334Y-98647619D01*
X160166667Y-98552381D02*
X160785715Y-98552381D01*
X160452381Y-98933333D01*
X160595239Y-98933333D01*
X160690477Y-98980952D01*
X160738096Y-99028571D01*
X160785715Y-99123810D01*
X160785715Y-99361905D01*
X160738096Y-99457143D01*
X160690477Y-99504762D01*
X160595239Y-99552381D01*
X160309524Y-99552381D01*
X160214286Y-99504762D01*
X160166667Y-99457143D01*
X121821905Y-110192381D02*
X121821905Y-109192381D01*
X122060000Y-109192381D01*
X122202858Y-109240000D01*
X122298096Y-109335238D01*
X122345715Y-109430476D01*
X122393334Y-109620952D01*
X122393334Y-109763810D01*
X122345715Y-109954286D01*
X122298096Y-110049524D01*
X122202858Y-110144762D01*
X122060000Y-110192381D01*
X121821905Y-110192381D01*
X123345715Y-110192381D02*
X122774286Y-110192381D01*
X123060000Y-110192381D02*
X123060000Y-109192381D01*
X122964762Y-109335238D01*
X122869524Y-109430476D01*
X122774286Y-109478095D01*
X119753095Y-105227381D02*
X119753095Y-104227381D01*
X120324524Y-105227381D02*
X119895952Y-104655952D01*
X120324524Y-104227381D02*
X119753095Y-104798810D01*
X124991905Y-127452381D02*
X124991905Y-126452381D01*
X125230000Y-126452381D01*
X125372858Y-126500000D01*
X125468096Y-126595238D01*
X125515715Y-126690476D01*
X125563334Y-126880952D01*
X125563334Y-127023810D01*
X125515715Y-127214286D01*
X125468096Y-127309524D01*
X125372858Y-127404762D01*
X125230000Y-127452381D01*
X124991905Y-127452381D01*
X125944286Y-126547619D02*
X125991905Y-126500000D01*
X126087143Y-126452381D01*
X126325239Y-126452381D01*
X126420477Y-126500000D01*
X126468096Y-126547619D01*
X126515715Y-126642857D01*
X126515715Y-126738095D01*
X126468096Y-126880952D01*
X125896667Y-127452381D01*
X126515715Y-127452381D01*
X124618095Y-124442381D02*
X124618095Y-123442381D01*
X125189524Y-124442381D02*
X124760952Y-123870952D01*
X125189524Y-123442381D02*
X124618095Y-124013810D01*
X134389905Y-127960381D02*
X134389905Y-126960381D01*
X134770858Y-126960381D01*
X134866096Y-127008000D01*
X134913715Y-127055619D01*
X134961334Y-127150857D01*
X134961334Y-127293714D01*
X134913715Y-127388952D01*
X134866096Y-127436571D01*
X134770858Y-127484190D01*
X134389905Y-127484190D01*
X135913715Y-127960381D02*
X135342286Y-127960381D01*
X135628000Y-127960381D02*
X135628000Y-126960381D01*
X135532762Y-127103238D01*
X135437524Y-127198476D01*
X135342286Y-127246095D01*
X152423905Y-127960381D02*
X152423905Y-126960381D01*
X152804858Y-126960381D01*
X152900096Y-127008000D01*
X152947715Y-127055619D01*
X152995334Y-127150857D01*
X152995334Y-127293714D01*
X152947715Y-127388952D01*
X152900096Y-127436571D01*
X152804858Y-127484190D01*
X152423905Y-127484190D01*
X153376286Y-127055619D02*
X153423905Y-127008000D01*
X153519143Y-126960381D01*
X153757239Y-126960381D01*
X153852477Y-127008000D01*
X153900096Y-127055619D01*
X153947715Y-127150857D01*
X153947715Y-127246095D01*
X153900096Y-127388952D01*
X153328667Y-127960381D01*
X153947715Y-127960381D01*
X168092381Y-111990095D02*
X167092381Y-111990095D01*
X167092381Y-111609142D01*
X167140000Y-111513904D01*
X167187619Y-111466285D01*
X167282857Y-111418666D01*
X167425714Y-111418666D01*
X167520952Y-111466285D01*
X167568571Y-111513904D01*
X167616190Y-111609142D01*
X167616190Y-111990095D01*
X167092381Y-111085333D02*
X167092381Y-110466285D01*
X167473333Y-110799619D01*
X167473333Y-110656761D01*
X167520952Y-110561523D01*
X167568571Y-110513904D01*
X167663810Y-110466285D01*
X167901905Y-110466285D01*
X167997143Y-110513904D01*
X168044762Y-110561523D01*
X168092381Y-110656761D01*
X168092381Y-110942476D01*
X168044762Y-111037714D01*
X167997143Y-111085333D01*
X146835905Y-76144381D02*
X146835905Y-75144381D01*
X147216858Y-75144381D01*
X147312096Y-75192000D01*
X147359715Y-75239619D01*
X147407334Y-75334857D01*
X147407334Y-75477714D01*
X147359715Y-75572952D01*
X147312096Y-75620571D01*
X147216858Y-75668190D01*
X146835905Y-75668190D01*
X148264477Y-75477714D02*
X148264477Y-76144381D01*
X148026381Y-75096762D02*
X147788286Y-75811048D01*
X148407334Y-75811048D01*
X126007905Y-76144381D02*
X126007905Y-75144381D01*
X126388858Y-75144381D01*
X126484096Y-75192000D01*
X126531715Y-75239619D01*
X126579334Y-75334857D01*
X126579334Y-75477714D01*
X126531715Y-75572952D01*
X126484096Y-75620571D01*
X126388858Y-75668190D01*
X126007905Y-75668190D01*
X127484096Y-75144381D02*
X127007905Y-75144381D01*
X126960286Y-75620571D01*
X127007905Y-75572952D01*
X127103143Y-75525333D01*
X127341239Y-75525333D01*
X127436477Y-75572952D01*
X127484096Y-75620571D01*
X127531715Y-75715810D01*
X127531715Y-75953905D01*
X127484096Y-76049143D01*
X127436477Y-76096762D01*
X127341239Y-76144381D01*
X127103143Y-76144381D01*
X127007905Y-76096762D01*
X126960286Y-76049143D01*
X142771905Y-118542381D02*
X142771905Y-117542381D01*
X143152858Y-117542381D01*
X143248096Y-117590000D01*
X143295715Y-117637619D01*
X143343334Y-117732857D01*
X143343334Y-117875714D01*
X143295715Y-117970952D01*
X143248096Y-118018571D01*
X143152858Y-118066190D01*
X142771905Y-118066190D01*
X143676667Y-117542381D02*
X144343334Y-117542381D01*
X143914762Y-118542381D01*
X127087334Y-102814381D02*
X126754000Y-102338190D01*
X126515905Y-102814381D02*
X126515905Y-101814381D01*
X126896858Y-101814381D01*
X126992096Y-101862000D01*
X127039715Y-101909619D01*
X127087334Y-102004857D01*
X127087334Y-102147714D01*
X127039715Y-102242952D01*
X126992096Y-102290571D01*
X126896858Y-102338190D01*
X126515905Y-102338190D01*
X128039715Y-102814381D02*
X127468286Y-102814381D01*
X127754000Y-102814381D02*
X127754000Y-101814381D01*
X127658762Y-101957238D01*
X127563524Y-102052476D01*
X127468286Y-102100095D01*
X133945334Y-121102381D02*
X133612000Y-120626190D01*
X133373905Y-121102381D02*
X133373905Y-120102381D01*
X133754858Y-120102381D01*
X133850096Y-120150000D01*
X133897715Y-120197619D01*
X133945334Y-120292857D01*
X133945334Y-120435714D01*
X133897715Y-120530952D01*
X133850096Y-120578571D01*
X133754858Y-120626190D01*
X133373905Y-120626190D01*
X134326286Y-120197619D02*
X134373905Y-120150000D01*
X134469143Y-120102381D01*
X134707239Y-120102381D01*
X134802477Y-120150000D01*
X134850096Y-120197619D01*
X134897715Y-120292857D01*
X134897715Y-120388095D01*
X134850096Y-120530952D01*
X134278667Y-121102381D01*
X134897715Y-121102381D01*
X124293334Y-118562381D02*
X123960000Y-118086190D01*
X123721905Y-118562381D02*
X123721905Y-117562381D01*
X124102858Y-117562381D01*
X124198096Y-117610000D01*
X124245715Y-117657619D01*
X124293334Y-117752857D01*
X124293334Y-117895714D01*
X124245715Y-117990952D01*
X124198096Y-118038571D01*
X124102858Y-118086190D01*
X123721905Y-118086190D01*
X124626667Y-117562381D02*
X125245715Y-117562381D01*
X124912381Y-117943333D01*
X125055239Y-117943333D01*
X125150477Y-117990952D01*
X125198096Y-118038571D01*
X125245715Y-118133810D01*
X125245715Y-118371905D01*
X125198096Y-118467143D01*
X125150477Y-118514762D01*
X125055239Y-118562381D01*
X124769524Y-118562381D01*
X124674286Y-118514762D01*
X124626667Y-118467143D01*
X156614762Y-91503333D02*
X156662381Y-91360476D01*
X156662381Y-91122380D01*
X156614762Y-91027142D01*
X156567143Y-90979523D01*
X156471905Y-90931904D01*
X156376667Y-90931904D01*
X156281429Y-90979523D01*
X156233810Y-91027142D01*
X156186190Y-91122380D01*
X156138571Y-91312857D01*
X156090952Y-91408095D01*
X156043333Y-91455714D01*
X155948095Y-91503333D01*
X155852857Y-91503333D01*
X155757619Y-91455714D01*
X155710000Y-91408095D01*
X155662381Y-91312857D01*
X155662381Y-91074761D01*
X155710000Y-90931904D01*
X155662381Y-90598571D02*
X156662381Y-90360476D01*
X155948095Y-90169999D01*
X156662381Y-89979523D01*
X155662381Y-89741428D01*
X156662381Y-88836666D02*
X156662381Y-89408095D01*
X156662381Y-89122381D02*
X155662381Y-89122381D01*
X155805238Y-89217619D01*
X155900476Y-89312857D01*
X155948095Y-89408095D01*
X147134804Y-89210355D02*
X146899102Y-90388867D01*
X147606209Y-89681760D02*
X146427697Y-89917462D01*
X147538866Y-91028630D02*
X147134804Y-90624569D01*
X147336835Y-90826599D02*
X148043941Y-90119492D01*
X147875583Y-90153164D01*
X147740896Y-90153164D01*
X147639881Y-90119492D01*
X139329611Y-109354688D02*
X139262268Y-109354688D01*
X139127581Y-109287344D01*
X139060237Y-109220001D01*
X138992893Y-109085313D01*
X138992893Y-108950626D01*
X139026565Y-108849611D01*
X139127580Y-108681253D01*
X139228596Y-108580237D01*
X139396955Y-108479222D01*
X139497970Y-108445550D01*
X139632657Y-108445550D01*
X139767344Y-108512894D01*
X139834688Y-108580237D01*
X139902031Y-108714924D01*
X139902031Y-108782268D01*
X140339764Y-109556718D02*
X139868359Y-110028123D01*
X140440778Y-109118985D02*
X139767343Y-109455703D01*
X140205076Y-109893436D01*
M02*
