M48
INCH,TZ
T1C0.031
T2C0.032
T3C0.032
T4C0.039
T5C0.040
%
G90
G05
T1
X50686Y-36429
X51393Y-37136
X52101Y-37843
X52808Y-34308
X52808Y-38550
X53515Y-35015
X53515Y-39257
X54222Y-35722
X54222Y-39964
X54929Y-36429
X54929Y-40672
X55636Y-37136
X55636Y-41379
X56343Y-37843
X56343Y-42086
X57050Y-38550
X57050Y-42793
X57757Y-39257
X57757Y-43500
X58464Y-39964
X58464Y-44207
X59172Y-40672
X59172Y-44914
X59879Y-41379
X59879Y-45621
X60586Y-42086
X61293Y-42793
X62000Y-43500
T2
X56570Y-36070
X57250Y-36750
X57930Y-37430
T3
X40500Y-30500
X40500Y-31500
X40500Y-32500
X40500Y-33500
X40500Y-34500
X40500Y-35500
X40500Y-36500
X40500Y-37500
X40500Y-38500
X40500Y-41500
X40500Y-42500
X40500Y-43500
X40500Y-44500
X40500Y-45500
X40500Y-46500
X40500Y-47500
X40500Y-48500
X40500Y-49500
X41500Y-30500
X41500Y-31500
X41500Y-32500
X41500Y-33500
X41500Y-34500
X41500Y-35500
X41500Y-36500
X41500Y-37500
X41500Y-38500
X41500Y-41500
X41500Y-42500
X41500Y-43500
X41500Y-44500
X41500Y-45500
X41500Y-46500
X41500Y-47500
X41500Y-48500
X41500Y-49500
X42500Y-30500
X42500Y-31500
X42500Y-32500
X42500Y-33500
X42500Y-34500
X42500Y-35500
X42500Y-36500
X42500Y-37500
X42500Y-38500
X42500Y-41500
X42500Y-42500
X42500Y-43500
X42500Y-44500
X42500Y-45500
X42500Y-46500
X42500Y-47500
X42500Y-48500
X42500Y-49500
X43500Y-30500
X43500Y-31500
X43500Y-32500
X43500Y-33500
X43500Y-34500
X43500Y-35500
X43500Y-36500
X43500Y-37500
X43500Y-38500
X43500Y-41500
X43500Y-42500
X43500Y-43500
X43500Y-44500
X43500Y-45500
X43500Y-46500
X43500Y-47500
X43500Y-48500
X43500Y-49500
X44500Y-30500
X44500Y-31500
X44500Y-32500
X44500Y-33500
X44500Y-34500
X44500Y-35500
X44500Y-36500
X44500Y-37500
X44500Y-38500
X44500Y-41500
X44500Y-42500
X44500Y-43500
X44500Y-44500
X44500Y-45500
X44500Y-46500
X44500Y-47500
X44500Y-48500
X44500Y-49500
X45500Y-30500
X45500Y-31500
X45500Y-32500
X45500Y-33500
X45500Y-34500
X45500Y-35500
X45500Y-36500
X45500Y-37500
X45500Y-38500
X45500Y-41500
X45500Y-42500
X45500Y-43500
X45500Y-44500
X45500Y-45500
X45500Y-46500
X45500Y-47500
X45500Y-48500
X45500Y-49500
X47500Y-46500
X48500Y-40250
X50000Y-44516
X50000Y-45500
X51500Y-46500
X51500Y-47500
X52500Y-40250
X53000Y-44500
X53000Y-45500
X53800Y-41700
X54496Y-42396
X55500Y-47500
X62500Y-34000
X62500Y-36559
X62500Y-40000
X63484Y-40000
T4
X47500Y-42000
X47500Y-49500
X48500Y-42000
X48500Y-49500
T5
X40500Y-39500
X40500Y-40500
X41500Y-39500
X41500Y-40500
X42500Y-39500
X42500Y-40500
X43500Y-39500
X43500Y-40500
X44500Y-39500
X44500Y-40500
X45500Y-39500
X45500Y-40500
X46500Y-30500
X46500Y-31500
X46500Y-32500
X46500Y-33500
X46500Y-34500
X46500Y-35500
X46500Y-36500
X46500Y-37500
X46500Y-38500
X46500Y-39500
X46500Y-40500
X46500Y-41500
X46500Y-42500
X46500Y-43500
X46500Y-44500
X46500Y-45500
X46500Y-46500
X46500Y-47500
X46500Y-48500
X46500Y-49500
X47500Y-44500
X47500Y-45500
X48500Y-44500
X48500Y-45500
X48900Y-30500
X49900Y-30500
X50900Y-30500
X51000Y-45500
X51900Y-30500
X52500Y-49500
X52900Y-30500
X53200Y-40950
X53500Y-48500
X53500Y-49500
X53900Y-30500
X54400Y-46500
X54500Y-49500
X54900Y-30500
X55500Y-49500
X55900Y-30500
X56500Y-48350
X56500Y-49500
X57500Y-30500
X57500Y-49500
X58500Y-30500
X59500Y-30500
X59500Y-49500
X60500Y-30500
X60500Y-49500
X61500Y-30500
X61500Y-49500
X62500Y-30500
X62500Y-49500
X63250Y-42000
X63500Y-30500
X63500Y-49500
X64500Y-30500
X64500Y-49500
X65000Y-40000
X65000Y-41000
X65000Y-42000
X65000Y-43000
X65000Y-44000
X65000Y-45000
T0
M30
