G04 #@! TF.FileFunction,Copper,L2,Bot,Signal*
%FSLAX46Y46*%
G04 Gerber Fmt 4.6, Leading zero omitted, Abs format (unit mm)*
G04 Created by KiCad (PCBNEW 4.0.4+e1-6308~48~ubuntu16.04.1-stable) date Thu Sep 15 18:43:10 2016*
%MOMM*%
%LPD*%
G01*
G04 APERTURE LIST*
%ADD10C,0.100000*%
%ADD11C,1.016000*%
%ADD12R,1.905000X1.905000*%
%ADD13C,1.600000*%
%ADD14R,1.600000X1.600000*%
%ADD15C,1.501140*%
%ADD16C,1.524000*%
%ADD17R,2.032000X1.727200*%
%ADD18O,2.032000X1.727200*%
%ADD19R,1.727200X2.032000*%
%ADD20O,1.727200X2.032000*%
%ADD21R,2.032000X2.032000*%
%ADD22O,2.032000X2.032000*%
%ADD23R,2.235200X2.235200*%
%ADD24R,2.000000X2.000000*%
%ADD25C,2.000000*%
%ADD26R,1.651000X1.651000*%
%ADD27C,1.651000*%
%ADD28C,1.600000*%
%ADD29C,2.032000*%
%ADD30C,2.032000*%
%ADD31C,0.812800*%
G04 APERTURE END LIST*
D10*
D11*
X3048000Y21209000D02*
X3048000Y21971000D01*
X2032000Y21209000D02*
X2032000Y21971000D01*
X2032000Y18669000D02*
X2032000Y19431000D01*
X3048000Y18669000D02*
X3048000Y19431000D01*
X3048000Y49149000D02*
X3048000Y49911000D01*
X2032000Y49149000D02*
X2032000Y49911000D01*
X2032000Y46609000D02*
X2032000Y47371000D01*
X3048000Y46609000D02*
X3048000Y47371000D01*
X5588000Y49149000D02*
X5588000Y49911000D01*
X4572000Y49149000D02*
X4572000Y49911000D01*
X4572000Y46609000D02*
X4572000Y47371000D01*
X5588000Y46609000D02*
X5588000Y47371000D01*
X8128000Y49149000D02*
X8128000Y49911000D01*
X7112000Y49149000D02*
X7112000Y49911000D01*
X7112000Y46609000D02*
X7112000Y47371000D01*
X8128000Y46609000D02*
X8128000Y47371000D01*
X10668000Y49149000D02*
X10668000Y49911000D01*
X9652000Y49149000D02*
X9652000Y49911000D01*
X9652000Y46609000D02*
X9652000Y47371000D01*
X10668000Y46609000D02*
X10668000Y47371000D01*
X13208000Y49149000D02*
X13208000Y49911000D01*
X12192000Y49149000D02*
X12192000Y49911000D01*
X12192000Y46609000D02*
X12192000Y47371000D01*
X13208000Y46609000D02*
X13208000Y47371000D01*
X15748000Y49149000D02*
X15748000Y49911000D01*
X14732000Y49149000D02*
X14732000Y49911000D01*
X14732000Y46609000D02*
X14732000Y47371000D01*
X15748000Y46609000D02*
X15748000Y47371000D01*
X3048000Y41529000D02*
X3048000Y42291000D01*
X2032000Y41529000D02*
X2032000Y42291000D01*
X2032000Y38989000D02*
X2032000Y39751000D01*
X3048000Y38989000D02*
X3048000Y39751000D01*
X5588000Y41529000D02*
X5588000Y42291000D01*
X4572000Y41529000D02*
X4572000Y42291000D01*
X4572000Y38989000D02*
X4572000Y39751000D01*
X5588000Y38989000D02*
X5588000Y39751000D01*
X8128000Y41529000D02*
X8128000Y42291000D01*
X7112000Y41529000D02*
X7112000Y42291000D01*
X7112000Y38989000D02*
X7112000Y39751000D01*
X8128000Y38989000D02*
X8128000Y39751000D01*
X10668000Y41529000D02*
X10668000Y42291000D01*
X9652000Y41529000D02*
X9652000Y42291000D01*
X9652000Y38989000D02*
X9652000Y39751000D01*
X10668000Y38989000D02*
X10668000Y39751000D01*
X13208000Y41529000D02*
X13208000Y42291000D01*
X12192000Y41529000D02*
X12192000Y42291000D01*
X12192000Y38989000D02*
X12192000Y39751000D01*
X13208000Y38989000D02*
X13208000Y39751000D01*
X15748000Y41529000D02*
X15748000Y42291000D01*
X14732000Y41529000D02*
X14732000Y42291000D01*
X14732000Y38989000D02*
X14732000Y39751000D01*
X15748000Y38989000D02*
X15748000Y39751000D01*
X3048000Y33909000D02*
X3048000Y34671000D01*
X2032000Y33909000D02*
X2032000Y34671000D01*
X2032000Y31369000D02*
X2032000Y32131000D01*
X3048000Y31369000D02*
X3048000Y32131000D01*
X5588000Y33909000D02*
X5588000Y34671000D01*
X4572000Y33909000D02*
X4572000Y34671000D01*
X4572000Y31369000D02*
X4572000Y32131000D01*
X5588000Y31369000D02*
X5588000Y32131000D01*
X8128000Y33909000D02*
X8128000Y34671000D01*
X7112000Y33909000D02*
X7112000Y34671000D01*
X7112000Y31369000D02*
X7112000Y32131000D01*
X8128000Y31369000D02*
X8128000Y32131000D01*
X10668000Y33909000D02*
X10668000Y34671000D01*
X9652000Y33909000D02*
X9652000Y34671000D01*
X9652000Y31369000D02*
X9652000Y32131000D01*
X10668000Y31369000D02*
X10668000Y32131000D01*
X13208000Y33909000D02*
X13208000Y34671000D01*
X12192000Y33909000D02*
X12192000Y34671000D01*
X12192000Y31369000D02*
X12192000Y32131000D01*
X13208000Y31369000D02*
X13208000Y32131000D01*
X15748000Y33909000D02*
X15748000Y34671000D01*
X14732000Y33909000D02*
X14732000Y34671000D01*
X14732000Y31369000D02*
X14732000Y32131000D01*
X15748000Y31369000D02*
X15748000Y32131000D01*
X5588000Y21209000D02*
X5588000Y21971000D01*
X4572000Y21209000D02*
X4572000Y21971000D01*
X4572000Y18669000D02*
X4572000Y19431000D01*
X5588000Y18669000D02*
X5588000Y19431000D01*
X8128000Y21209000D02*
X8128000Y21971000D01*
X7112000Y21209000D02*
X7112000Y21971000D01*
X7112000Y18669000D02*
X7112000Y19431000D01*
X8128000Y18669000D02*
X8128000Y19431000D01*
X10668000Y21209000D02*
X10668000Y21971000D01*
X9652000Y21209000D02*
X9652000Y21971000D01*
X9652000Y18669000D02*
X9652000Y19431000D01*
X10668000Y18669000D02*
X10668000Y19431000D01*
X13208000Y21209000D02*
X13208000Y21971000D01*
X12192000Y21209000D02*
X12192000Y21971000D01*
X12192000Y18669000D02*
X12192000Y19431000D01*
X13208000Y18669000D02*
X13208000Y19431000D01*
X15748000Y21209000D02*
X15748000Y21971000D01*
X14732000Y21209000D02*
X14732000Y21971000D01*
X14732000Y18669000D02*
X14732000Y19431000D01*
X15748000Y18669000D02*
X15748000Y19431000D01*
X3048000Y13589000D02*
X3048000Y14351000D01*
X2032000Y13589000D02*
X2032000Y14351000D01*
X2032000Y11049000D02*
X2032000Y11811000D01*
X3048000Y11049000D02*
X3048000Y11811000D01*
X5588000Y13589000D02*
X5588000Y14351000D01*
X4572000Y13589000D02*
X4572000Y14351000D01*
X4572000Y11049000D02*
X4572000Y11811000D01*
X5588000Y11049000D02*
X5588000Y11811000D01*
X8128000Y13589000D02*
X8128000Y14351000D01*
X7112000Y13589000D02*
X7112000Y14351000D01*
X7112000Y11049000D02*
X7112000Y11811000D01*
X8128000Y11049000D02*
X8128000Y11811000D01*
X10668000Y13589000D02*
X10668000Y14351000D01*
X9652000Y13589000D02*
X9652000Y14351000D01*
X9652000Y11049000D02*
X9652000Y11811000D01*
X10668000Y11049000D02*
X10668000Y11811000D01*
X13208000Y13589000D02*
X13208000Y14351000D01*
X12192000Y13589000D02*
X12192000Y14351000D01*
X12192000Y11049000D02*
X12192000Y11811000D01*
X13208000Y11049000D02*
X13208000Y11811000D01*
X15748000Y13589000D02*
X15748000Y14351000D01*
X14732000Y13589000D02*
X14732000Y14351000D01*
X14732000Y11049000D02*
X14732000Y11811000D01*
X15748000Y11049000D02*
X15748000Y11811000D01*
X3048000Y5969000D02*
X3048000Y6731000D01*
X2032000Y5969000D02*
X2032000Y6731000D01*
X2032000Y3429000D02*
X2032000Y4191000D01*
X3048000Y3429000D02*
X3048000Y4191000D01*
X5588000Y5969000D02*
X5588000Y6731000D01*
X4572000Y5969000D02*
X4572000Y6731000D01*
X4572000Y3429000D02*
X4572000Y4191000D01*
X5588000Y3429000D02*
X5588000Y4191000D01*
X8128000Y5969000D02*
X8128000Y6731000D01*
X7112000Y5969000D02*
X7112000Y6731000D01*
X7112000Y3429000D02*
X7112000Y4191000D01*
X8128000Y3429000D02*
X8128000Y4191000D01*
X10668000Y5969000D02*
X10668000Y6731000D01*
X9652000Y5969000D02*
X9652000Y6731000D01*
X9652000Y3429000D02*
X9652000Y4191000D01*
X10668000Y3429000D02*
X10668000Y4191000D01*
X13208000Y5969000D02*
X13208000Y6731000D01*
X12192000Y5969000D02*
X12192000Y6731000D01*
X12192000Y3429000D02*
X12192000Y4191000D01*
X13208000Y3429000D02*
X13208000Y4191000D01*
X15748000Y5969000D02*
X15748000Y6731000D01*
X14732000Y5969000D02*
X14732000Y6731000D01*
X14732000Y3429000D02*
X14732000Y4191000D01*
X15748000Y3429000D02*
X15748000Y4191000D01*
D12*
X2540000Y17780000D03*
X2540000Y20320000D03*
X2540000Y22860000D03*
X2540000Y45720000D03*
X2540000Y48260000D03*
X2540000Y50800000D03*
D13*
X58420000Y41910000D03*
X58420000Y35410000D03*
D10*
G36*
X35190629Y22352000D02*
X36322000Y23483371D01*
X37453371Y22352000D01*
X36322000Y21220629D01*
X35190629Y22352000D01*
X35190629Y22352000D01*
G37*
D13*
X38089767Y20584233D03*
D14*
X58420000Y26670000D03*
D13*
X60920000Y26670000D03*
D14*
X26670000Y12700000D03*
D13*
X26670000Y15200000D03*
D15*
X46811005Y33198995D03*
X43358995Y36651005D03*
X45085000Y34925000D03*
D16*
X20320000Y10160000D03*
X30480000Y10160000D03*
X30480000Y7620000D03*
X40640000Y7620000D03*
X33020000Y26035000D03*
X22860000Y26035000D03*
D17*
X17780000Y50800000D03*
D18*
X17780000Y48260000D03*
X17780000Y45720000D03*
X17780000Y43180000D03*
X17780000Y40640000D03*
X17780000Y38100000D03*
X17780000Y35560000D03*
X17780000Y33020000D03*
X17780000Y30480000D03*
X17780000Y27940000D03*
D19*
X2540000Y27940000D03*
D20*
X5080000Y27940000D03*
X7620000Y27940000D03*
X10160000Y27940000D03*
X12700000Y27940000D03*
X15240000Y27940000D03*
D17*
X17780000Y25400000D03*
D18*
X17780000Y22860000D03*
X17780000Y20320000D03*
X17780000Y17780000D03*
X17780000Y15240000D03*
X17780000Y12700000D03*
X17780000Y10160000D03*
X17780000Y7620000D03*
X17780000Y5080000D03*
X17780000Y2540000D03*
D19*
X2540000Y25400000D03*
D20*
X5080000Y25400000D03*
X7620000Y25400000D03*
X10160000Y25400000D03*
X12700000Y25400000D03*
X15240000Y25400000D03*
D21*
X20320000Y12700000D03*
D22*
X20320000Y15240000D03*
D21*
X22860000Y12700000D03*
D22*
X22860000Y15240000D03*
D23*
X43180000Y5461000D03*
X35560000Y5080000D03*
D19*
X41656000Y50800000D03*
D20*
X39116000Y50800000D03*
X36576000Y50800000D03*
X34036000Y50800000D03*
X31496000Y50800000D03*
X28956000Y50800000D03*
X26416000Y50800000D03*
X23876000Y50800000D03*
D19*
X63500000Y50800000D03*
D20*
X60960000Y50800000D03*
X58420000Y50800000D03*
X55880000Y50800000D03*
X53340000Y50800000D03*
X50800000Y50800000D03*
X48260000Y50800000D03*
X45720000Y50800000D03*
D17*
X64770000Y13970000D03*
D18*
X64770000Y16510000D03*
X64770000Y19050000D03*
X64770000Y21590000D03*
X64770000Y24130000D03*
X64770000Y26670000D03*
D19*
X50800000Y2540000D03*
D20*
X53340000Y2540000D03*
X55880000Y2540000D03*
X58420000Y2540000D03*
X60960000Y2540000D03*
X63500000Y2540000D03*
D19*
X33020000Y2540000D03*
D20*
X35560000Y2540000D03*
X38100000Y2540000D03*
X40640000Y2540000D03*
X43180000Y2540000D03*
X45720000Y2540000D03*
D24*
X22860000Y2540000D03*
D25*
X20320000Y2540000D03*
D24*
X20320000Y21590000D03*
D25*
X22860000Y21590000D03*
D26*
X34290000Y12700000D03*
D27*
X34290000Y15240000D03*
D28*
X57397487Y18027487D02*
X56902513Y17532513D01*
X55601436Y19823538D02*
X55106462Y19328564D01*
X53805385Y21619589D02*
X53310411Y21124615D01*
X52009333Y23415641D02*
X51514359Y22920667D01*
X50213282Y25211692D02*
X49718308Y24716718D01*
X48417231Y27007743D02*
X47922257Y26512769D01*
X46621180Y28803794D02*
X46126206Y28308820D01*
X44825128Y30599846D02*
X44330154Y30104872D01*
X43029077Y32395897D02*
X42534103Y31900923D01*
X41233026Y34191948D02*
X40738052Y33696974D01*
X39436975Y35987999D02*
X38942001Y35493025D01*
X37640924Y37784050D02*
X37145950Y37289076D01*
X35844872Y39580102D02*
X35349898Y39085128D01*
X34048821Y41376153D02*
X33553847Y40881179D01*
X28660667Y35987999D02*
X28165693Y35493025D01*
X30456719Y34191948D02*
X29961745Y33696974D01*
X32252770Y32395897D02*
X31757796Y31900923D01*
X34048821Y30599846D02*
X33553847Y30104872D01*
X35844872Y28803794D02*
X35349898Y28308820D01*
X37640924Y27007743D02*
X37145950Y26512769D01*
X39436975Y25211692D02*
X38942001Y24716718D01*
X41233026Y23415641D02*
X40738052Y22920667D01*
X43029077Y21619589D02*
X42534103Y21124615D01*
X44825128Y19823538D02*
X44330154Y19328564D01*
X46621180Y18027487D02*
X46126206Y17532513D01*
X48417231Y16231436D02*
X47922257Y15736462D01*
X50213282Y14435385D02*
X49718308Y13940411D01*
X52009333Y12639333D02*
X51514359Y12144359D01*
D12*
X5080000Y45720000D03*
X5080000Y48260000D03*
X5080000Y50800000D03*
X7620000Y45720000D03*
X7620000Y48260000D03*
X7620000Y50800000D03*
X10160000Y45720000D03*
X10160000Y48260000D03*
X10160000Y50800000D03*
X12700000Y45720000D03*
X12700000Y48260000D03*
X12700000Y50800000D03*
X15240000Y45720000D03*
X15240000Y48260000D03*
X15240000Y50800000D03*
X2540000Y38100000D03*
X2540000Y40640000D03*
X2540000Y43180000D03*
X5080000Y38100000D03*
X5080000Y40640000D03*
X5080000Y43180000D03*
X7620000Y38100000D03*
X7620000Y40640000D03*
X7620000Y43180000D03*
X10160000Y38100000D03*
X10160000Y40640000D03*
X10160000Y43180000D03*
X12700000Y38100000D03*
X12700000Y40640000D03*
X12700000Y43180000D03*
X15240000Y38100000D03*
X15240000Y40640000D03*
X15240000Y43180000D03*
X2540000Y30480000D03*
X2540000Y33020000D03*
X2540000Y35560000D03*
X5080000Y30480000D03*
X5080000Y33020000D03*
X5080000Y35560000D03*
X7620000Y30480000D03*
X7620000Y33020000D03*
X7620000Y35560000D03*
X10160000Y30480000D03*
X10160000Y33020000D03*
X10160000Y35560000D03*
X12700000Y30480000D03*
X12700000Y33020000D03*
X12700000Y35560000D03*
X15240000Y30480000D03*
X15240000Y33020000D03*
X15240000Y35560000D03*
X5080000Y17780000D03*
X5080000Y20320000D03*
X5080000Y22860000D03*
X7620000Y17780000D03*
X7620000Y20320000D03*
X7620000Y22860000D03*
X10160000Y17780000D03*
X10160000Y20320000D03*
X10160000Y22860000D03*
X12700000Y17780000D03*
X12700000Y20320000D03*
X12700000Y22860000D03*
X15240000Y17780000D03*
X15240000Y20320000D03*
X15240000Y22860000D03*
X2540000Y10160000D03*
X2540000Y12700000D03*
X2540000Y15240000D03*
X5080000Y10160000D03*
X5080000Y12700000D03*
X5080000Y15240000D03*
X7620000Y10160000D03*
X7620000Y12700000D03*
X7620000Y15240000D03*
X10160000Y10160000D03*
X10160000Y12700000D03*
X10160000Y15240000D03*
X12700000Y10160000D03*
X12700000Y12700000D03*
X12700000Y15240000D03*
X15240000Y10160000D03*
X15240000Y12700000D03*
X15240000Y15240000D03*
X2540000Y2540000D03*
X2540000Y5080000D03*
X2540000Y7620000D03*
X5080000Y2540000D03*
X5080000Y5080000D03*
X5080000Y7620000D03*
X7620000Y2540000D03*
X7620000Y5080000D03*
X7620000Y7620000D03*
X10160000Y2540000D03*
X10160000Y5080000D03*
X10160000Y7620000D03*
X12700000Y2540000D03*
X12700000Y5080000D03*
X12700000Y7620000D03*
X15240000Y2540000D03*
X15240000Y5080000D03*
X15240000Y7620000D03*
D29*
X29210000Y12700000D03*
X34798000Y24257000D03*
X60325000Y21590000D03*
X37846000Y10160000D03*
D30*
X12700000Y25400000D02*
X10160000Y25400000D01*
X10160000Y25400000D02*
X7620000Y25400000D01*
X7620000Y25400000D02*
X5080000Y25400000D01*
X5080000Y25400000D02*
X2540000Y25400000D01*
X15240000Y25400000D02*
X12700000Y25400000D01*
D31*
X64203262Y4503738D02*
X63568262Y4503738D01*
X65714880Y2992120D02*
X64203262Y4503738D01*
X38100000Y381000D02*
X65714880Y381000D01*
X65714880Y381000D02*
X65714880Y2992120D01*
X57086500Y10985500D02*
X57086500Y13970000D01*
X63568262Y4503738D02*
X57086500Y10985500D01*
X55245000Y13970000D02*
X57086500Y13970000D01*
X45085000Y27305000D02*
X46336307Y28556307D01*
X45085000Y27305000D02*
X45085000Y24130000D01*
X45085000Y24130000D02*
X55245000Y13970000D01*
X57086500Y13970000D02*
X58420000Y13970000D01*
X58420000Y13970000D02*
X63500000Y19050000D01*
X64770000Y19050000D02*
X63500000Y19050000D01*
X37393437Y26760256D02*
X37301256Y26760256D01*
X37301256Y26760256D02*
X34798000Y24257000D01*
X17780000Y2540000D02*
X17780000Y381000D01*
X17780000Y381000D02*
X38100000Y381000D01*
X17780000Y2540000D02*
X20320000Y2540000D01*
X17780000Y10160000D02*
X20320000Y10160000D01*
D30*
X17780000Y17780000D02*
X17780000Y15240000D01*
X17780000Y15240000D02*
X17780000Y12700000D01*
X15240000Y25400000D02*
X17780000Y25400000D01*
X17780000Y12700000D02*
X17780000Y10160000D01*
X17780000Y5080000D02*
X17780000Y2540000D01*
X17780000Y7620000D02*
X17780000Y5080000D01*
X17780000Y10160000D02*
X17780000Y7620000D01*
X17780000Y25400000D02*
X17780000Y22860000D01*
X17780000Y22860000D02*
X17780000Y20320000D01*
X17780000Y20320000D02*
X17780000Y17780000D01*
D31*
X20320000Y12700000D02*
X20320000Y10160000D01*
X34290000Y12700000D02*
X29210000Y12700000D01*
X29210000Y12700000D02*
X26670000Y12700000D01*
X26670000Y12700000D02*
X22860000Y12700000D01*
X22860000Y12700000D02*
X20320000Y12700000D01*
X38100000Y2540000D02*
X38100000Y381000D01*
X46373693Y28556307D02*
X46336307Y28556307D01*
X45340282Y31115000D02*
X47625000Y31115000D01*
X47625000Y31115000D02*
X48514000Y32004000D01*
X48514000Y32004000D02*
X48514000Y34036000D01*
X48514000Y34036000D02*
X47625000Y34925000D01*
X47625000Y34925000D02*
X45085000Y34925000D01*
X45340282Y31115000D02*
X44577641Y30352359D01*
X42545000Y28319718D02*
X44577641Y30352359D01*
X58420000Y41910000D02*
X60782200Y41910000D01*
X60782200Y41910000D02*
X63792100Y38900100D01*
X64770000Y16510000D02*
X68199000Y16510000D01*
X64770000Y13970000D02*
X66675000Y13970000D01*
X62103000Y33401000D02*
X64008000Y31496000D01*
X64008000Y31496000D02*
X66040000Y31496000D01*
X65405000Y52959000D02*
X65405000Y40513000D01*
X65405000Y52959000D02*
X26416000Y52959000D01*
X65405000Y40513000D02*
X63792100Y38900100D01*
X63792100Y38900100D02*
X62103000Y37211000D01*
X62103000Y37211000D02*
X62103000Y33401000D01*
X68199000Y29337000D02*
X66040000Y31496000D01*
X68199000Y15494000D02*
X68199000Y16510000D01*
X68199000Y16510000D02*
X68199000Y29337000D01*
X66675000Y13970000D02*
X68199000Y15494000D01*
X26416000Y52959000D02*
X19939000Y52959000D01*
X19939000Y52959000D02*
X17780000Y50800000D01*
X40640000Y7620000D02*
X40640000Y10160000D01*
X37465000Y15240000D02*
X34290000Y15240000D01*
X38989000Y13716000D02*
X37465000Y15240000D01*
X38989000Y11811000D02*
X38989000Y13716000D01*
X40640000Y10160000D02*
X38989000Y11811000D01*
X40640000Y7620000D02*
X40640000Y2540000D01*
X17780000Y27940000D02*
X20320000Y27940000D01*
X20320000Y27940000D02*
X20320000Y21590000D01*
D30*
X17780000Y50800000D02*
X17780000Y48260000D01*
X17780000Y48260000D02*
X17780000Y45720000D01*
X17780000Y45720000D02*
X17780000Y43180000D01*
X17780000Y43180000D02*
X17780000Y40640000D01*
X17780000Y40640000D02*
X17780000Y38100000D01*
X17780000Y38100000D02*
X17780000Y35560000D01*
X17780000Y35560000D02*
X17780000Y33020000D01*
X17780000Y33020000D02*
X17780000Y30480000D01*
X17780000Y30480000D02*
X17780000Y27940000D01*
X17780000Y27940000D02*
X15240000Y27940000D01*
X15240000Y27940000D02*
X12700000Y27940000D01*
X12700000Y27940000D02*
X10160000Y27940000D01*
X10160000Y27940000D02*
X7620000Y27940000D01*
X7620000Y27940000D02*
X5080000Y27940000D01*
X5080000Y27940000D02*
X2540000Y27940000D01*
D31*
X26670000Y15200000D02*
X34250000Y15200000D01*
X34250000Y15200000D02*
X34290000Y15240000D01*
X40985539Y23168154D02*
X40673688Y23168154D01*
X40673688Y23168154D02*
X37962767Y20457233D01*
X37962767Y20457233D02*
X37602233Y20457233D01*
X37602233Y20457233D02*
X34290000Y17145000D01*
X34290000Y17145000D02*
X34290000Y15240000D01*
X40985539Y23168154D02*
X40985539Y23205539D01*
X40985539Y23205539D02*
X42545000Y24765000D01*
X42545000Y24765000D02*
X42545000Y28319718D01*
X26710000Y15240000D02*
X22860000Y15240000D01*
X22860000Y15240000D02*
X20320000Y15240000D01*
X20320000Y15240000D02*
X20320000Y21590000D01*
X40640000Y2540000D02*
X43180000Y2540000D01*
X26162000Y52959000D02*
X26416000Y52959000D01*
X26416000Y50800000D02*
X26416000Y52705000D01*
X26162000Y52959000D02*
X26035000Y52959000D01*
X26416000Y52705000D02*
X26162000Y52959000D01*
X58420000Y21590000D02*
X58420000Y19050000D01*
X58420000Y19050000D02*
X57150000Y17780000D01*
X33020000Y2540000D02*
X33020000Y10160000D01*
X30480000Y10160000D02*
X33020000Y10160000D01*
X33020000Y10160000D02*
X37846000Y10160000D01*
X60325000Y21590000D02*
X58420000Y21590000D01*
X58420000Y35410000D02*
X58420000Y26670000D01*
X58420000Y21590000D02*
X58420000Y26670000D01*
X58420000Y35410000D02*
X58420000Y35410000D01*
X60920000Y26670000D02*
X64730000Y26710000D01*
X64730000Y26710000D02*
X64770000Y26670000D01*
X22860000Y26035000D02*
X22860000Y21590000D01*
X60325000Y32385000D02*
X60325000Y37325300D01*
X66903598Y28092402D02*
X65786000Y29210000D01*
X65786000Y29210000D02*
X63500000Y29210000D01*
X64770000Y21590000D02*
X66141598Y21590000D01*
X66141598Y21590000D02*
X66903598Y22352000D01*
X63500000Y29210000D02*
X60325000Y32385000D01*
X66903598Y22352000D02*
X66903598Y28092402D01*
X59753500Y37896800D02*
X56642000Y37896800D01*
X60325000Y37325300D02*
X59753500Y37896800D01*
X56642000Y42672000D02*
X56642000Y37896800D01*
X56642000Y37896800D02*
X56642000Y20864102D01*
X63500000Y50800000D02*
X63500000Y49530000D01*
X56642000Y42672000D02*
X63500000Y49530000D01*
X56642000Y20864102D02*
X55353949Y19576051D01*
X54991000Y42926000D02*
X54991000Y22805204D01*
X60960000Y50800000D02*
X60960000Y48895000D01*
X54991000Y42926000D02*
X60960000Y48895000D01*
X54991000Y22805204D02*
X53557898Y21372102D01*
X52705000Y19050000D02*
X52705000Y20519204D01*
X52705000Y19050000D02*
X56007000Y15748000D01*
X56007000Y15748000D02*
X57658000Y15748000D01*
X57658000Y15748000D02*
X62484000Y20574000D01*
X62484000Y20574000D02*
X62484000Y23114000D01*
X62484000Y23114000D02*
X63500000Y24130000D01*
X64770000Y24130000D02*
X63500000Y24130000D01*
X52705000Y20519204D02*
X53557898Y21372102D01*
X51761846Y23168154D02*
X51761846Y23186846D01*
X51761846Y23186846D02*
X53340000Y24765000D01*
X58420000Y48260000D02*
X58420000Y50800000D01*
X53340000Y43180000D02*
X58420000Y48260000D01*
X53340000Y24765000D02*
X53340000Y43180000D01*
X55880000Y50800000D02*
X55880000Y48006000D01*
X51689000Y26687410D02*
X49965795Y24964205D01*
X51689000Y43815000D02*
X51689000Y26687410D01*
X55880000Y48006000D02*
X51689000Y43815000D01*
X48169744Y26760256D02*
X48350256Y26760256D01*
X48350256Y26760256D02*
X50038000Y28448000D01*
X53340000Y47663100D02*
X53340000Y50800000D01*
X50038000Y44361100D02*
X53340000Y47663100D01*
X50038000Y28448000D02*
X50038000Y44361100D01*
X48169744Y26760256D02*
X48169744Y26579744D01*
X48169744Y26579744D02*
X48895000Y27305000D01*
X46811005Y33198995D02*
X43832175Y33198995D01*
X43832175Y33198995D02*
X42781590Y32148410D01*
X43358995Y36651005D02*
X43358995Y36317917D01*
X43358995Y36317917D02*
X40985539Y33944461D01*
X50800000Y50800000D02*
X50800000Y47351024D01*
X50800000Y47351024D02*
X39189488Y35740512D01*
X37393437Y37536563D02*
X37536563Y37536563D01*
X37536563Y37536563D02*
X48260000Y48260000D01*
X48260000Y48260000D02*
X48260000Y50800000D01*
X37393437Y37536563D02*
X37393437Y38028437D01*
X45720000Y50800000D02*
X45720000Y49455230D01*
X45720000Y49455230D02*
X35597385Y39332615D01*
X41656000Y50800000D02*
X41656000Y48983332D01*
X41656000Y48983332D02*
X33801334Y41128666D01*
X28413180Y35740512D02*
X28413180Y38573180D01*
X39116000Y49276000D02*
X39116000Y50800000D01*
X28413180Y38573180D02*
X39116000Y49276000D01*
X27940000Y33020000D02*
X29284771Y33020000D01*
X27940000Y33020000D02*
X26289000Y34671000D01*
X26289000Y34671000D02*
X26289000Y39116000D01*
X26289000Y39116000D02*
X36576000Y49403000D01*
X36576000Y50800000D02*
X36576000Y49403000D01*
X29284771Y33020000D02*
X30209232Y33944461D01*
X27940000Y31115000D02*
X30971873Y31115000D01*
X27940000Y31115000D02*
X24765000Y34290000D01*
X24765000Y34290000D02*
X24765000Y40132000D01*
X24765000Y40132000D02*
X34036000Y49403000D01*
X34036000Y50800000D02*
X34036000Y49403000D01*
X30971873Y31115000D02*
X32005283Y32148410D01*
X27940000Y29210000D02*
X32658975Y29210000D01*
X27940000Y29210000D02*
X23114000Y34036000D01*
X23114000Y34036000D02*
X23114000Y41021000D01*
X23114000Y41021000D02*
X31496000Y49403000D01*
X31496000Y50800000D02*
X31496000Y49403000D01*
X32658975Y29210000D02*
X33801334Y30352359D01*
X27749500Y27495500D02*
X31559500Y27495500D01*
X28956000Y50800000D02*
X28956000Y49276000D01*
X21463000Y41783000D02*
X28956000Y49276000D01*
X21463000Y33782000D02*
X21463000Y41783000D01*
X27749500Y27495500D02*
X21463000Y33782000D01*
X31559500Y27495500D02*
X33020000Y26035000D01*
X33020000Y26035000D02*
X33076078Y26035000D01*
X33076078Y26035000D02*
X35597385Y28556307D01*
X35597385Y28556307D02*
X35541307Y28556307D01*
X23876000Y50800000D02*
X19812000Y46736000D01*
X31115000Y22225000D02*
X19812000Y33528000D01*
X19812000Y33528000D02*
X19812000Y46736000D01*
X31115000Y22225000D02*
X36195000Y22225000D01*
X39189488Y24964205D02*
X38934205Y24964205D01*
X38934205Y24964205D02*
X36195000Y22225000D01*
X50165000Y2540000D02*
X41910000Y10795000D01*
X41910000Y20320000D02*
X42781590Y21191590D01*
X41910000Y10795000D02*
X41910000Y20320000D01*
X42781590Y21191590D02*
X42781590Y21372102D01*
X53340000Y2540000D02*
X53340000Y3175000D01*
X43434000Y18432410D02*
X44577641Y19576051D01*
X43434000Y11430000D02*
X43434000Y18432410D01*
X49657000Y5207000D02*
X43434000Y11430000D01*
X51308000Y5207000D02*
X49657000Y5207000D01*
X53340000Y3175000D02*
X51308000Y5207000D01*
X55880000Y2540000D02*
X55880000Y4064000D01*
X53086000Y6858000D02*
X55880000Y4064000D01*
X45085000Y16491307D02*
X46373693Y17780000D01*
X50419000Y6858000D02*
X45085000Y12192000D01*
X45085000Y12192000D02*
X45085000Y16491307D01*
X50419000Y6858000D02*
X53086000Y6858000D01*
X51054000Y8255000D02*
X54102000Y8255000D01*
X51054000Y8255000D02*
X46990000Y12319000D01*
X46990000Y12319000D02*
X46990000Y14804205D01*
X48169744Y15983949D02*
X46990000Y14804205D01*
X58420000Y3937000D02*
X58420000Y2540000D01*
X54102000Y8255000D02*
X58420000Y3937000D01*
X49212500Y12001500D02*
X49212500Y13434603D01*
X49212500Y13434603D02*
X49965795Y14187898D01*
X60960000Y3302000D02*
X60960000Y2540000D01*
X54102000Y10160000D02*
X60960000Y3302000D01*
X51054000Y10160000D02*
X54102000Y10160000D01*
X49199800Y12014200D02*
X49212500Y12001500D01*
X49212500Y12001500D02*
X51054000Y10160000D01*
X63500000Y2540000D02*
X63500000Y2667000D01*
X53775154Y12391846D02*
X51761846Y12391846D01*
X63500000Y2667000D02*
X53775154Y12391846D01*
X35560000Y2540000D02*
X35560000Y5080000D01*
X45720000Y2540000D02*
X45720000Y4826000D01*
X45085000Y5461000D02*
X43180000Y5461000D01*
X45720000Y4826000D02*
X45085000Y5461000D01*
X22860000Y2540000D02*
X25400000Y2540000D01*
X25400000Y2540000D02*
X30480000Y7620000D01*
M02*
