G04 #@! TF.FileFunction,Legend,Top*
%FSLAX46Y46*%
G04 Gerber Fmt 4.6, Leading zero omitted, Abs format (unit mm)*
G04 Created by KiCad (PCBNEW 4.0.2+e4-6225~38~ubuntu16.04.1-stable) date Thu 11 Aug 2016 11:22:14 PM PDT*
%MOMM*%
G01*
G04 APERTURE LIST*
%ADD10C,0.100000*%
%ADD11C,0.150000*%
G04 APERTURE END LIST*
D10*
D11*
X101854000Y-104394000D02*
X103886000Y-104394000D01*
X103886000Y-104394000D02*
X103886000Y-111506000D01*
X103886000Y-111506000D02*
X101854000Y-111506000D01*
X101854000Y-111506000D02*
X101854000Y-104394000D01*
X101854000Y-76454000D02*
X103886000Y-76454000D01*
X103886000Y-76454000D02*
X103886000Y-83566000D01*
X103886000Y-83566000D02*
X101854000Y-83566000D01*
X101854000Y-83566000D02*
X101854000Y-76454000D01*
X157480000Y-87630000D02*
X157480000Y-91440000D01*
X157480000Y-91440000D02*
X160020000Y-91440000D01*
X160020000Y-91440000D02*
X160020000Y-87630000D01*
X160020000Y-87630000D02*
X157480000Y-87630000D01*
X137005553Y-104503786D02*
X139833981Y-107332214D01*
X135237786Y-106271553D02*
X138066214Y-109099981D01*
X158000000Y-100350000D02*
X162000000Y-100350000D01*
X158000000Y-102850000D02*
X162000000Y-102850000D01*
X125750000Y-116320000D02*
X125750000Y-112320000D01*
X128250000Y-116320000D02*
X128250000Y-112320000D01*
X141384661Y-90729949D02*
X141526549Y-90304285D01*
X141526549Y-90304285D02*
X141878575Y-89808575D01*
X141878575Y-89808575D02*
X142304239Y-89526595D01*
X142304239Y-89526595D02*
X143080133Y-89314661D01*
X143080133Y-89314661D02*
X143789574Y-89456549D01*
X143789574Y-89456549D02*
X144355330Y-89738529D01*
X144355330Y-89738529D02*
X149021471Y-94404670D01*
X149021471Y-94404670D02*
X149375293Y-95042268D01*
X149375293Y-95042268D02*
X149445339Y-95536182D01*
X149445339Y-95536182D02*
X149375293Y-96173781D01*
X149375293Y-96173781D02*
X149093313Y-96739537D01*
X149093313Y-96739537D02*
X148739491Y-97093359D01*
X148739491Y-97093359D02*
X148243781Y-97305293D01*
X148243781Y-97305293D02*
X147466090Y-97375339D01*
X147466090Y-97375339D02*
X146900334Y-97233451D01*
X146900334Y-97233451D02*
X146474670Y-96951471D01*
X146404624Y-96881425D02*
X141736687Y-92213488D01*
X141736687Y-92213488D02*
X141526549Y-91859666D01*
X141526549Y-91859666D02*
X141384661Y-91293910D01*
X141384661Y-91293910D02*
X141384661Y-90586265D01*
X146023861Y-97247819D02*
X146383072Y-97538780D01*
X146383072Y-97538780D02*
X146744078Y-97741733D01*
X146744078Y-97741733D02*
X147203867Y-97892602D01*
X147203867Y-97892602D02*
X147572058Y-97933911D01*
X147572058Y-97933911D02*
X148053399Y-97919542D01*
X148053399Y-97919542D02*
X148638912Y-97743529D01*
X148638912Y-97743529D02*
X149154379Y-97411260D01*
X149154379Y-97411260D02*
X149515385Y-97050254D01*
X149515385Y-97050254D02*
X149890760Y-96434208D01*
X149890760Y-96434208D02*
X150025463Y-95735544D01*
X150025463Y-95735544D02*
X149962602Y-95148235D01*
X149962602Y-95148235D02*
X149811733Y-94702815D01*
X149811733Y-94702815D02*
X149606984Y-94271762D01*
X149606984Y-94271762D02*
X149317819Y-93939493D01*
X143972771Y-88903365D02*
X143548903Y-88792010D01*
X143548903Y-88792010D02*
X143125035Y-88763273D01*
X143125035Y-88763273D02*
X142713739Y-88818951D01*
X142713739Y-88818951D02*
X142112062Y-88996760D01*
X142112062Y-88996760D02*
X141702562Y-89251799D01*
X141702562Y-89251799D02*
X141363108Y-89562516D01*
X141363108Y-89562516D02*
X141100885Y-89950463D01*
X141100885Y-89950463D02*
X140917688Y-90403068D01*
X140917688Y-90403068D02*
X140840458Y-90990377D01*
X140840458Y-90990377D02*
X140862010Y-91464534D01*
X140862010Y-91464534D02*
X140973365Y-91902771D01*
X140973365Y-91902771D02*
X141178115Y-92305086D01*
X141178115Y-92305086D02*
X141442135Y-92666093D01*
X149325004Y-93961046D02*
X144763033Y-89399075D01*
X144763033Y-89399075D02*
X144439744Y-89129668D01*
X144439744Y-89129668D02*
X143972771Y-88903365D01*
X146031046Y-97255004D02*
X141469075Y-92693033D01*
X120650000Y-118110000D02*
X121666000Y-118110000D01*
X121666000Y-118110000D02*
X121666000Y-117094000D01*
X121666000Y-117094000D02*
X129794000Y-117094000D01*
X129794000Y-117094000D02*
X129794000Y-119126000D01*
X129794000Y-119126000D02*
X121666000Y-119126000D01*
X121666000Y-119126000D02*
X121666000Y-118110000D01*
X121666000Y-117602000D02*
X122174000Y-117094000D01*
X130810000Y-118110000D02*
X129794000Y-118110000D01*
X130810000Y-120650000D02*
X131826000Y-120650000D01*
X131826000Y-120650000D02*
X131826000Y-119634000D01*
X131826000Y-119634000D02*
X139954000Y-119634000D01*
X139954000Y-119634000D02*
X139954000Y-121666000D01*
X139954000Y-121666000D02*
X131826000Y-121666000D01*
X131826000Y-121666000D02*
X131826000Y-120650000D01*
X131826000Y-120142000D02*
X132334000Y-119634000D01*
X140970000Y-120650000D02*
X139954000Y-120650000D01*
X133350000Y-102235000D02*
X132334000Y-102235000D01*
X132334000Y-102235000D02*
X132334000Y-103251000D01*
X132334000Y-103251000D02*
X124206000Y-103251000D01*
X124206000Y-103251000D02*
X124206000Y-101219000D01*
X124206000Y-101219000D02*
X132334000Y-101219000D01*
X132334000Y-101219000D02*
X132334000Y-102235000D01*
X132334000Y-102743000D02*
X131826000Y-103251000D01*
X123190000Y-102235000D02*
X124206000Y-102235000D01*
X119380000Y-78740000D02*
X119380000Y-101600000D01*
X119380000Y-101600000D02*
X116840000Y-101600000D01*
X116840000Y-101600000D02*
X116840000Y-78740000D01*
X119660000Y-75920000D02*
X119660000Y-77470000D01*
X119380000Y-78740000D02*
X116840000Y-78740000D01*
X116560000Y-77470000D02*
X116560000Y-75920000D01*
X116560000Y-75920000D02*
X119660000Y-75920000D01*
X104140000Y-99060000D02*
X116840000Y-99060000D01*
X116840000Y-99060000D02*
X116840000Y-101600000D01*
X116840000Y-101600000D02*
X104140000Y-101600000D01*
X101320000Y-98780000D02*
X102870000Y-98780000D01*
X104140000Y-99060000D02*
X104140000Y-101600000D01*
X102870000Y-101880000D02*
X101320000Y-101880000D01*
X101320000Y-101880000D02*
X101320000Y-98780000D01*
X119380000Y-104140000D02*
X119380000Y-127000000D01*
X119380000Y-127000000D02*
X116840000Y-127000000D01*
X116840000Y-127000000D02*
X116840000Y-104140000D01*
X119660000Y-101320000D02*
X119660000Y-102870000D01*
X119380000Y-104140000D02*
X116840000Y-104140000D01*
X116560000Y-102870000D02*
X116560000Y-101320000D01*
X116560000Y-101320000D02*
X119660000Y-101320000D01*
X104140000Y-101600000D02*
X116840000Y-101600000D01*
X116840000Y-101600000D02*
X116840000Y-104140000D01*
X116840000Y-104140000D02*
X104140000Y-104140000D01*
X101320000Y-101320000D02*
X102870000Y-101320000D01*
X104140000Y-101600000D02*
X104140000Y-104140000D01*
X102870000Y-104420000D02*
X101320000Y-104420000D01*
X101320000Y-104420000D02*
X101320000Y-101320000D01*
X119380000Y-114300000D02*
X119380000Y-111760000D01*
X119100000Y-117120000D02*
X119100000Y-115570000D01*
X119380000Y-114300000D02*
X121920000Y-114300000D01*
X122200000Y-115570000D02*
X122200000Y-117120000D01*
X122200000Y-117120000D02*
X119100000Y-117120000D01*
X121920000Y-114300000D02*
X121920000Y-111760000D01*
X121920000Y-111760000D02*
X119380000Y-111760000D01*
X121920000Y-114300000D02*
X121920000Y-111760000D01*
X121640000Y-117120000D02*
X121640000Y-115570000D01*
X121920000Y-114300000D02*
X124460000Y-114300000D01*
X124740000Y-115570000D02*
X124740000Y-117120000D01*
X124740000Y-117120000D02*
X121640000Y-117120000D01*
X124460000Y-114300000D02*
X124460000Y-111760000D01*
X124460000Y-111760000D02*
X121920000Y-111760000D01*
X145060000Y-121259000D02*
X145060000Y-122809000D01*
X141960000Y-122809000D02*
X141960000Y-121259000D01*
X141960000Y-121259000D02*
X145060000Y-121259000D01*
X142240000Y-124079000D02*
X144780000Y-124079000D01*
X137440000Y-121640000D02*
X137440000Y-123190000D01*
X134340000Y-123190000D02*
X134340000Y-121640000D01*
X134340000Y-121640000D02*
X137440000Y-121640000D01*
X134620000Y-124460000D02*
X137160000Y-124460000D01*
X140716000Y-78740000D02*
X122936000Y-78740000D01*
X122936000Y-78740000D02*
X122936000Y-76200000D01*
X122936000Y-76200000D02*
X140716000Y-76200000D01*
X143536000Y-79020000D02*
X141986000Y-79020000D01*
X140716000Y-78740000D02*
X140716000Y-76200000D01*
X141986000Y-75920000D02*
X143536000Y-75920000D01*
X143536000Y-75920000D02*
X143536000Y-79020000D01*
X162560000Y-78740000D02*
X144780000Y-78740000D01*
X144780000Y-78740000D02*
X144780000Y-76200000D01*
X144780000Y-76200000D02*
X162560000Y-76200000D01*
X165380000Y-79020000D02*
X163830000Y-79020000D01*
X162560000Y-78740000D02*
X162560000Y-76200000D01*
X163830000Y-75920000D02*
X165380000Y-75920000D01*
X165380000Y-75920000D02*
X165380000Y-79020000D01*
X163830000Y-113030000D02*
X163830000Y-100330000D01*
X163830000Y-100330000D02*
X166370000Y-100330000D01*
X166370000Y-100330000D02*
X166370000Y-113030000D01*
X163550000Y-115850000D02*
X163550000Y-114300000D01*
X163830000Y-113030000D02*
X166370000Y-113030000D01*
X166650000Y-114300000D02*
X166650000Y-115850000D01*
X166650000Y-115850000D02*
X163550000Y-115850000D01*
X152400000Y-124460000D02*
X165100000Y-124460000D01*
X165100000Y-124460000D02*
X165100000Y-127000000D01*
X165100000Y-127000000D02*
X152400000Y-127000000D01*
X149580000Y-124180000D02*
X151130000Y-124180000D01*
X152400000Y-124460000D02*
X152400000Y-127000000D01*
X151130000Y-127280000D02*
X149580000Y-127280000D01*
X149580000Y-127280000D02*
X149580000Y-124180000D01*
X134620000Y-124460000D02*
X147320000Y-124460000D01*
X147320000Y-124460000D02*
X147320000Y-127000000D01*
X147320000Y-127000000D02*
X134620000Y-127000000D01*
X131800000Y-124180000D02*
X133350000Y-124180000D01*
X134620000Y-124460000D02*
X134620000Y-127000000D01*
X133350000Y-127280000D02*
X131800000Y-127280000D01*
X131800000Y-127280000D02*
X131800000Y-124180000D01*
X123389000Y-124416000D02*
X123389000Y-124616000D01*
X123389000Y-127010000D02*
X123389000Y-126830000D01*
X120161256Y-126699643D02*
G75*
G03X123389000Y-127016000I1727744J1003643D01*
G01*
X120836994Y-126829068D02*
G75*
G03X122940000Y-126830000I1052006J1133068D01*
G01*
X123376220Y-124389274D02*
G75*
G03X120139000Y-124736000I-1497220J-1306726D01*
G01*
X122902889Y-124616747D02*
G75*
G03X120855000Y-124636000I-1013889J-1079253D01*
G01*
X120451000Y-107994000D02*
X120451000Y-107794000D01*
X120451000Y-105400000D02*
X120451000Y-105580000D01*
X123678744Y-105710357D02*
G75*
G03X120451000Y-105394000I-1727744J-1003643D01*
G01*
X123003006Y-105580932D02*
G75*
G03X120900000Y-105580000I-1052006J-1133068D01*
G01*
X120463780Y-108020726D02*
G75*
G03X123701000Y-107674000I1497220J1306726D01*
G01*
X120937111Y-107793253D02*
G75*
G03X122985000Y-107774000I1013889J1079253D01*
G01*
X138684000Y-114300000D02*
G75*
G03X138684000Y-114300000I-4064000J0D01*
G01*
X159007351Y-112208269D02*
X158109325Y-111310244D01*
X153810116Y-117405504D02*
X152912090Y-116507479D01*
X127215830Y-90811218D02*
X128113855Y-91709244D01*
X132413065Y-85613983D02*
X133311090Y-86512009D01*
X159007351Y-112208269D02*
X153810116Y-117405504D01*
X132413065Y-85613983D02*
X127215830Y-90811218D01*
X158109325Y-111310244D02*
X159017957Y-110401612D01*
X104394000Y-76454000D02*
X106426000Y-76454000D01*
X106426000Y-76454000D02*
X106426000Y-83566000D01*
X106426000Y-83566000D02*
X104394000Y-83566000D01*
X104394000Y-83566000D02*
X104394000Y-76454000D01*
X106934000Y-76454000D02*
X108966000Y-76454000D01*
X108966000Y-76454000D02*
X108966000Y-83566000D01*
X108966000Y-83566000D02*
X106934000Y-83566000D01*
X106934000Y-83566000D02*
X106934000Y-76454000D01*
X109474000Y-76454000D02*
X111506000Y-76454000D01*
X111506000Y-76454000D02*
X111506000Y-83566000D01*
X111506000Y-83566000D02*
X109474000Y-83566000D01*
X109474000Y-83566000D02*
X109474000Y-76454000D01*
X112014000Y-76454000D02*
X114046000Y-76454000D01*
X114046000Y-76454000D02*
X114046000Y-83566000D01*
X114046000Y-83566000D02*
X112014000Y-83566000D01*
X112014000Y-83566000D02*
X112014000Y-76454000D01*
X114554000Y-76454000D02*
X116586000Y-76454000D01*
X116586000Y-76454000D02*
X116586000Y-83566000D01*
X116586000Y-83566000D02*
X114554000Y-83566000D01*
X114554000Y-83566000D02*
X114554000Y-76454000D01*
X101854000Y-84074000D02*
X103886000Y-84074000D01*
X103886000Y-84074000D02*
X103886000Y-91186000D01*
X103886000Y-91186000D02*
X101854000Y-91186000D01*
X101854000Y-91186000D02*
X101854000Y-84074000D01*
X104394000Y-84074000D02*
X106426000Y-84074000D01*
X106426000Y-84074000D02*
X106426000Y-91186000D01*
X106426000Y-91186000D02*
X104394000Y-91186000D01*
X104394000Y-91186000D02*
X104394000Y-84074000D01*
X106934000Y-84074000D02*
X108966000Y-84074000D01*
X108966000Y-84074000D02*
X108966000Y-91186000D01*
X108966000Y-91186000D02*
X106934000Y-91186000D01*
X106934000Y-91186000D02*
X106934000Y-84074000D01*
X109474000Y-84074000D02*
X111506000Y-84074000D01*
X111506000Y-84074000D02*
X111506000Y-91186000D01*
X111506000Y-91186000D02*
X109474000Y-91186000D01*
X109474000Y-91186000D02*
X109474000Y-84074000D01*
X112014000Y-84074000D02*
X114046000Y-84074000D01*
X114046000Y-84074000D02*
X114046000Y-91186000D01*
X114046000Y-91186000D02*
X112014000Y-91186000D01*
X112014000Y-91186000D02*
X112014000Y-84074000D01*
X114554000Y-84074000D02*
X116586000Y-84074000D01*
X116586000Y-84074000D02*
X116586000Y-91186000D01*
X116586000Y-91186000D02*
X114554000Y-91186000D01*
X114554000Y-91186000D02*
X114554000Y-84074000D01*
X101854000Y-91694000D02*
X103886000Y-91694000D01*
X103886000Y-91694000D02*
X103886000Y-98806000D01*
X103886000Y-98806000D02*
X101854000Y-98806000D01*
X101854000Y-98806000D02*
X101854000Y-91694000D01*
X104394000Y-91694000D02*
X106426000Y-91694000D01*
X106426000Y-91694000D02*
X106426000Y-98806000D01*
X106426000Y-98806000D02*
X104394000Y-98806000D01*
X104394000Y-98806000D02*
X104394000Y-91694000D01*
X106934000Y-91694000D02*
X108966000Y-91694000D01*
X108966000Y-91694000D02*
X108966000Y-98806000D01*
X108966000Y-98806000D02*
X106934000Y-98806000D01*
X106934000Y-98806000D02*
X106934000Y-91694000D01*
X109474000Y-91694000D02*
X111506000Y-91694000D01*
X111506000Y-91694000D02*
X111506000Y-98806000D01*
X111506000Y-98806000D02*
X109474000Y-98806000D01*
X109474000Y-98806000D02*
X109474000Y-91694000D01*
X112014000Y-91694000D02*
X114046000Y-91694000D01*
X114046000Y-91694000D02*
X114046000Y-98806000D01*
X114046000Y-98806000D02*
X112014000Y-98806000D01*
X112014000Y-98806000D02*
X112014000Y-91694000D01*
X114554000Y-91694000D02*
X116586000Y-91694000D01*
X116586000Y-91694000D02*
X116586000Y-98806000D01*
X116586000Y-98806000D02*
X114554000Y-98806000D01*
X114554000Y-98806000D02*
X114554000Y-91694000D01*
X104394000Y-104394000D02*
X106426000Y-104394000D01*
X106426000Y-104394000D02*
X106426000Y-111506000D01*
X106426000Y-111506000D02*
X104394000Y-111506000D01*
X104394000Y-111506000D02*
X104394000Y-104394000D01*
X106934000Y-104394000D02*
X108966000Y-104394000D01*
X108966000Y-104394000D02*
X108966000Y-111506000D01*
X108966000Y-111506000D02*
X106934000Y-111506000D01*
X106934000Y-111506000D02*
X106934000Y-104394000D01*
X109474000Y-104394000D02*
X111506000Y-104394000D01*
X111506000Y-104394000D02*
X111506000Y-111506000D01*
X111506000Y-111506000D02*
X109474000Y-111506000D01*
X109474000Y-111506000D02*
X109474000Y-104394000D01*
X112014000Y-104394000D02*
X114046000Y-104394000D01*
X114046000Y-104394000D02*
X114046000Y-111506000D01*
X114046000Y-111506000D02*
X112014000Y-111506000D01*
X112014000Y-111506000D02*
X112014000Y-104394000D01*
X114554000Y-104394000D02*
X116586000Y-104394000D01*
X116586000Y-104394000D02*
X116586000Y-111506000D01*
X116586000Y-111506000D02*
X114554000Y-111506000D01*
X114554000Y-111506000D02*
X114554000Y-104394000D01*
X101854000Y-112014000D02*
X103886000Y-112014000D01*
X103886000Y-112014000D02*
X103886000Y-119126000D01*
X103886000Y-119126000D02*
X101854000Y-119126000D01*
X101854000Y-119126000D02*
X101854000Y-112014000D01*
X104394000Y-112014000D02*
X106426000Y-112014000D01*
X106426000Y-112014000D02*
X106426000Y-119126000D01*
X106426000Y-119126000D02*
X104394000Y-119126000D01*
X104394000Y-119126000D02*
X104394000Y-112014000D01*
X106934000Y-112014000D02*
X108966000Y-112014000D01*
X108966000Y-112014000D02*
X108966000Y-119126000D01*
X108966000Y-119126000D02*
X106934000Y-119126000D01*
X106934000Y-119126000D02*
X106934000Y-112014000D01*
X109474000Y-112014000D02*
X111506000Y-112014000D01*
X111506000Y-112014000D02*
X111506000Y-119126000D01*
X111506000Y-119126000D02*
X109474000Y-119126000D01*
X109474000Y-119126000D02*
X109474000Y-112014000D01*
X112014000Y-112014000D02*
X114046000Y-112014000D01*
X114046000Y-112014000D02*
X114046000Y-119126000D01*
X114046000Y-119126000D02*
X112014000Y-119126000D01*
X112014000Y-119126000D02*
X112014000Y-112014000D01*
X114554000Y-112014000D02*
X116586000Y-112014000D01*
X116586000Y-112014000D02*
X116586000Y-119126000D01*
X116586000Y-119126000D02*
X114554000Y-119126000D01*
X114554000Y-119126000D02*
X114554000Y-112014000D01*
X101854000Y-119634000D02*
X103886000Y-119634000D01*
X103886000Y-119634000D02*
X103886000Y-126746000D01*
X103886000Y-126746000D02*
X101854000Y-126746000D01*
X101854000Y-126746000D02*
X101854000Y-119634000D01*
X104394000Y-119634000D02*
X106426000Y-119634000D01*
X106426000Y-119634000D02*
X106426000Y-126746000D01*
X106426000Y-126746000D02*
X104394000Y-126746000D01*
X104394000Y-126746000D02*
X104394000Y-119634000D01*
X106934000Y-119634000D02*
X108966000Y-119634000D01*
X108966000Y-119634000D02*
X108966000Y-126746000D01*
X108966000Y-126746000D02*
X106934000Y-126746000D01*
X106934000Y-126746000D02*
X106934000Y-119634000D01*
X109474000Y-119634000D02*
X111506000Y-119634000D01*
X111506000Y-119634000D02*
X111506000Y-126746000D01*
X111506000Y-126746000D02*
X109474000Y-126746000D01*
X109474000Y-126746000D02*
X109474000Y-119634000D01*
X112014000Y-119634000D02*
X114046000Y-119634000D01*
X114046000Y-119634000D02*
X114046000Y-126746000D01*
X114046000Y-126746000D02*
X112014000Y-126746000D01*
X112014000Y-126746000D02*
X112014000Y-119634000D01*
X114554000Y-119634000D02*
X116586000Y-119634000D01*
X116586000Y-119634000D02*
X116586000Y-126746000D01*
X116586000Y-126746000D02*
X114554000Y-126746000D01*
X114554000Y-126746000D02*
X114554000Y-119634000D01*
X159154762Y-90741333D02*
X159202381Y-90598476D01*
X159202381Y-90360380D01*
X159154762Y-90265142D01*
X159107143Y-90217523D01*
X159011905Y-90169904D01*
X158916667Y-90169904D01*
X158821429Y-90217523D01*
X158773810Y-90265142D01*
X158726190Y-90360380D01*
X158678571Y-90550857D01*
X158630952Y-90646095D01*
X158583333Y-90693714D01*
X158488095Y-90741333D01*
X158392857Y-90741333D01*
X158297619Y-90693714D01*
X158250000Y-90646095D01*
X158202381Y-90550857D01*
X158202381Y-90312761D01*
X158250000Y-90169904D01*
X158202381Y-89836571D02*
X159202381Y-89598476D01*
X158488095Y-89407999D01*
X159202381Y-89217523D01*
X158202381Y-88979428D01*
X159202381Y-88074666D02*
X159202381Y-88646095D01*
X159202381Y-88360381D02*
X158202381Y-88360381D01*
X158345238Y-88455619D01*
X158440476Y-88550857D01*
X158488095Y-88646095D01*
X138933261Y-105168805D02*
X138865918Y-105168805D01*
X138731231Y-105101461D01*
X138663887Y-105034118D01*
X138596543Y-104899430D01*
X138596543Y-104764743D01*
X138630215Y-104663728D01*
X138731230Y-104495370D01*
X138832246Y-104394354D01*
X139000605Y-104293339D01*
X139101620Y-104259667D01*
X139236307Y-104259667D01*
X139370994Y-104327011D01*
X139438338Y-104394354D01*
X139505681Y-104529041D01*
X139505681Y-104596385D01*
X139943414Y-105370835D02*
X139472009Y-105842240D01*
X140044428Y-104933102D02*
X139370993Y-105269820D01*
X139808726Y-105707553D01*
X159833334Y-99457143D02*
X159785715Y-99504762D01*
X159642858Y-99552381D01*
X159547620Y-99552381D01*
X159404762Y-99504762D01*
X159309524Y-99409524D01*
X159261905Y-99314286D01*
X159214286Y-99123810D01*
X159214286Y-98980952D01*
X159261905Y-98790476D01*
X159309524Y-98695238D01*
X159404762Y-98600000D01*
X159547620Y-98552381D01*
X159642858Y-98552381D01*
X159785715Y-98600000D01*
X159833334Y-98647619D01*
X160166667Y-98552381D02*
X160785715Y-98552381D01*
X160452381Y-98933333D01*
X160595239Y-98933333D01*
X160690477Y-98980952D01*
X160738096Y-99028571D01*
X160785715Y-99123810D01*
X160785715Y-99361905D01*
X160738096Y-99457143D01*
X160690477Y-99504762D01*
X160595239Y-99552381D01*
X160309524Y-99552381D01*
X160214286Y-99504762D01*
X160166667Y-99457143D01*
X127357143Y-110910666D02*
X127404762Y-110958285D01*
X127452381Y-111101142D01*
X127452381Y-111196380D01*
X127404762Y-111339238D01*
X127309524Y-111434476D01*
X127214286Y-111482095D01*
X127023810Y-111529714D01*
X126880952Y-111529714D01*
X126690476Y-111482095D01*
X126595238Y-111434476D01*
X126500000Y-111339238D01*
X126452381Y-111196380D01*
X126452381Y-111101142D01*
X126500000Y-110958285D01*
X126547619Y-110910666D01*
X127452381Y-109958285D02*
X127452381Y-110529714D01*
X127452381Y-110244000D02*
X126452381Y-110244000D01*
X126595238Y-110339238D01*
X126690476Y-110434476D01*
X126738095Y-110529714D01*
X147388805Y-87940355D02*
X147153103Y-89118867D01*
X147860210Y-88411760D02*
X146681698Y-88647462D01*
X147792867Y-89758630D02*
X147388805Y-89354569D01*
X147590836Y-89556599D02*
X148297942Y-88849492D01*
X148129584Y-88883164D01*
X147994897Y-88883164D01*
X147893882Y-88849492D01*
X124293334Y-118562381D02*
X123960000Y-118086190D01*
X123721905Y-118562381D02*
X123721905Y-117562381D01*
X124102858Y-117562381D01*
X124198096Y-117610000D01*
X124245715Y-117657619D01*
X124293334Y-117752857D01*
X124293334Y-117895714D01*
X124245715Y-117990952D01*
X124198096Y-118038571D01*
X124102858Y-118086190D01*
X123721905Y-118086190D01*
X124626667Y-117562381D02*
X125245715Y-117562381D01*
X124912381Y-117943333D01*
X125055239Y-117943333D01*
X125150477Y-117990952D01*
X125198096Y-118038571D01*
X125245715Y-118133810D01*
X125245715Y-118371905D01*
X125198096Y-118467143D01*
X125150477Y-118514762D01*
X125055239Y-118562381D01*
X124769524Y-118562381D01*
X124674286Y-118514762D01*
X124626667Y-118467143D01*
X135723334Y-121102381D02*
X135390000Y-120626190D01*
X135151905Y-121102381D02*
X135151905Y-120102381D01*
X135532858Y-120102381D01*
X135628096Y-120150000D01*
X135675715Y-120197619D01*
X135723334Y-120292857D01*
X135723334Y-120435714D01*
X135675715Y-120530952D01*
X135628096Y-120578571D01*
X135532858Y-120626190D01*
X135151905Y-120626190D01*
X136104286Y-120197619D02*
X136151905Y-120150000D01*
X136247143Y-120102381D01*
X136485239Y-120102381D01*
X136580477Y-120150000D01*
X136628096Y-120197619D01*
X136675715Y-120292857D01*
X136675715Y-120388095D01*
X136628096Y-120530952D01*
X136056667Y-121102381D01*
X136675715Y-121102381D01*
X126833334Y-102687381D02*
X126500000Y-102211190D01*
X126261905Y-102687381D02*
X126261905Y-101687381D01*
X126642858Y-101687381D01*
X126738096Y-101735000D01*
X126785715Y-101782619D01*
X126833334Y-101877857D01*
X126833334Y-102020714D01*
X126785715Y-102115952D01*
X126738096Y-102163571D01*
X126642858Y-102211190D01*
X126261905Y-102211190D01*
X127785715Y-102687381D02*
X127214286Y-102687381D01*
X127500000Y-102687381D02*
X127500000Y-101687381D01*
X127404762Y-101830238D01*
X127309524Y-101925476D01*
X127214286Y-101973095D01*
X128039905Y-76144381D02*
X128039905Y-75144381D01*
X128420858Y-75144381D01*
X128516096Y-75192000D01*
X128563715Y-75239619D01*
X128611334Y-75334857D01*
X128611334Y-75477714D01*
X128563715Y-75572952D01*
X128516096Y-75620571D01*
X128420858Y-75668190D01*
X128039905Y-75668190D01*
X129516096Y-75144381D02*
X129039905Y-75144381D01*
X128992286Y-75620571D01*
X129039905Y-75572952D01*
X129135143Y-75525333D01*
X129373239Y-75525333D01*
X129468477Y-75572952D01*
X129516096Y-75620571D01*
X129563715Y-75715810D01*
X129563715Y-75953905D01*
X129516096Y-76049143D01*
X129468477Y-76096762D01*
X129373239Y-76144381D01*
X129135143Y-76144381D01*
X129039905Y-76096762D01*
X128992286Y-76049143D01*
X150010905Y-76144381D02*
X150010905Y-75144381D01*
X150391858Y-75144381D01*
X150487096Y-75192000D01*
X150534715Y-75239619D01*
X150582334Y-75334857D01*
X150582334Y-75477714D01*
X150534715Y-75572952D01*
X150487096Y-75620571D01*
X150391858Y-75668190D01*
X150010905Y-75668190D01*
X151439477Y-75477714D02*
X151439477Y-76144381D01*
X151201381Y-75096762D02*
X150963286Y-75811048D01*
X151582334Y-75811048D01*
X167838381Y-110974095D02*
X166838381Y-110974095D01*
X166838381Y-110593142D01*
X166886000Y-110497904D01*
X166933619Y-110450285D01*
X167028857Y-110402666D01*
X167171714Y-110402666D01*
X167266952Y-110450285D01*
X167314571Y-110497904D01*
X167362190Y-110593142D01*
X167362190Y-110974095D01*
X166838381Y-110069333D02*
X166838381Y-109450285D01*
X167219333Y-109783619D01*
X167219333Y-109640761D01*
X167266952Y-109545523D01*
X167314571Y-109497904D01*
X167409810Y-109450285D01*
X167647905Y-109450285D01*
X167743143Y-109497904D01*
X167790762Y-109545523D01*
X167838381Y-109640761D01*
X167838381Y-109926476D01*
X167790762Y-110021714D01*
X167743143Y-110069333D01*
X154201905Y-127960381D02*
X154201905Y-126960381D01*
X154582858Y-126960381D01*
X154678096Y-127008000D01*
X154725715Y-127055619D01*
X154773334Y-127150857D01*
X154773334Y-127293714D01*
X154725715Y-127388952D01*
X154678096Y-127436571D01*
X154582858Y-127484190D01*
X154201905Y-127484190D01*
X155154286Y-127055619D02*
X155201905Y-127008000D01*
X155297143Y-126960381D01*
X155535239Y-126960381D01*
X155630477Y-127008000D01*
X155678096Y-127055619D01*
X155725715Y-127150857D01*
X155725715Y-127246095D01*
X155678096Y-127388952D01*
X155106667Y-127960381D01*
X155725715Y-127960381D01*
X136167905Y-127960381D02*
X136167905Y-126960381D01*
X136548858Y-126960381D01*
X136644096Y-127008000D01*
X136691715Y-127055619D01*
X136739334Y-127150857D01*
X136739334Y-127293714D01*
X136691715Y-127388952D01*
X136644096Y-127436571D01*
X136548858Y-127484190D01*
X136167905Y-127484190D01*
X137691715Y-127960381D02*
X137120286Y-127960381D01*
X137406000Y-127960381D02*
X137406000Y-126960381D01*
X137310762Y-127103238D01*
X137215524Y-127198476D01*
X137120286Y-127246095D01*
X124483905Y-127452381D02*
X124483905Y-126452381D01*
X124722000Y-126452381D01*
X124864858Y-126500000D01*
X124960096Y-126595238D01*
X125007715Y-126690476D01*
X125055334Y-126880952D01*
X125055334Y-127023810D01*
X125007715Y-127214286D01*
X124960096Y-127309524D01*
X124864858Y-127404762D01*
X124722000Y-127452381D01*
X124483905Y-127452381D01*
X125436286Y-126547619D02*
X125483905Y-126500000D01*
X125579143Y-126452381D01*
X125817239Y-126452381D01*
X125912477Y-126500000D01*
X125960096Y-126547619D01*
X126007715Y-126642857D01*
X126007715Y-126738095D01*
X125960096Y-126880952D01*
X125388667Y-127452381D01*
X126007715Y-127452381D01*
X124618095Y-124442381D02*
X124618095Y-123442381D01*
X125189524Y-124442381D02*
X124760952Y-123870952D01*
X125189524Y-123442381D02*
X124618095Y-124013810D01*
X121821905Y-110192381D02*
X121821905Y-109192381D01*
X122060000Y-109192381D01*
X122202858Y-109240000D01*
X122298096Y-109335238D01*
X122345715Y-109430476D01*
X122393334Y-109620952D01*
X122393334Y-109763810D01*
X122345715Y-109954286D01*
X122298096Y-110049524D01*
X122202858Y-110144762D01*
X122060000Y-110192381D01*
X121821905Y-110192381D01*
X123345715Y-110192381D02*
X122774286Y-110192381D01*
X123060000Y-110192381D02*
X123060000Y-109192381D01*
X122964762Y-109335238D01*
X122869524Y-109430476D01*
X122774286Y-109478095D01*
X118698095Y-108872381D02*
X118698095Y-107872381D01*
X119269524Y-108872381D02*
X118840952Y-108300952D01*
X119269524Y-107872381D02*
X118698095Y-108443810D01*
X137009143Y-114466666D02*
X137056762Y-114514285D01*
X137104381Y-114657142D01*
X137104381Y-114752380D01*
X137056762Y-114895238D01*
X136961524Y-114990476D01*
X136866286Y-115038095D01*
X136675810Y-115085714D01*
X136532952Y-115085714D01*
X136342476Y-115038095D01*
X136247238Y-114990476D01*
X136152000Y-114895238D01*
X136104381Y-114752380D01*
X136104381Y-114657142D01*
X136152000Y-114514285D01*
X136199619Y-114466666D01*
X136199619Y-114085714D02*
X136152000Y-114038095D01*
X136104381Y-113942857D01*
X136104381Y-113704761D01*
X136152000Y-113609523D01*
X136199619Y-113561904D01*
X136294857Y-113514285D01*
X136390095Y-113514285D01*
X136532952Y-113561904D01*
X137104381Y-114133333D01*
X137104381Y-113514285D01*
X134691429Y-117726412D02*
X134691429Y-116964507D01*
X135072381Y-117345459D02*
X134310476Y-117345459D01*
X160800708Y-115191249D02*
X160093601Y-114484142D01*
X161474143Y-114383127D02*
X161474143Y-114450471D01*
X161406800Y-114585158D01*
X161339456Y-114652501D01*
X161204769Y-114719845D01*
X161070082Y-114719845D01*
X160969067Y-114686173D01*
X160800708Y-114585158D01*
X160699692Y-114484142D01*
X160598677Y-114315784D01*
X160565005Y-114214769D01*
X160565005Y-114080082D01*
X160632350Y-113945394D01*
X160699693Y-113878051D01*
X160834380Y-113810707D01*
X160901723Y-113810707D01*
X162214922Y-113777036D02*
X161810860Y-114181097D01*
X162012891Y-113979067D02*
X161305784Y-113271960D01*
X161339456Y-113440319D01*
X161339456Y-113575005D01*
X161305784Y-113676021D01*
M02*
