G04 #@! TF.FileFunction,Other,Fab,Top*
%FSLAX46Y46*%
G04 Gerber Fmt 4.6, Leading zero omitted, Abs format (unit mm)*
G04 Created by KiCad (PCBNEW 4.0.3+e1-6302~38~ubuntu16.04.1-stable) date Mon Aug  8 19:29:20 2016*
%MOMM*%
%LPD*%
G01*
G04 APERTURE LIST*
%ADD10C,0.100000*%
%ADD11C,0.150000*%
G04 APERTURE END LIST*
D10*
D11*
X153978138Y-118672566D02*
X154314856Y-118335848D01*
X154112825Y-118941940D02*
X153641420Y-117999131D01*
X154584229Y-118470535D01*
X154011810Y-117628741D02*
X154415871Y-117224680D01*
X154920947Y-118133818D02*
X154213840Y-117426711D01*
X155358680Y-117696085D02*
X154651573Y-116988978D01*
X155392352Y-117258352D01*
X155122978Y-116517573D01*
X155830084Y-117224680D01*
X155796412Y-116517573D02*
X156032115Y-116281870D01*
X156503519Y-116551245D02*
X156166802Y-116887963D01*
X155459695Y-116180856D01*
X155796413Y-115844138D01*
X156503519Y-115204375D02*
X156402504Y-115238046D01*
X156301489Y-115339062D01*
X156234145Y-115473749D01*
X156234145Y-115608436D01*
X156267817Y-115709451D01*
X156368832Y-115877810D01*
X156469848Y-115978826D01*
X156638206Y-116079841D01*
X156739222Y-116113513D01*
X156873908Y-116113513D01*
X157008596Y-116046168D01*
X157075939Y-115978825D01*
X157143283Y-115844138D01*
X157143283Y-115776795D01*
X156907581Y-115541093D01*
X156772894Y-115675779D01*
X157277970Y-115372734D02*
X157614688Y-115036016D01*
X157412657Y-115642108D02*
X156941252Y-114699299D01*
X157884061Y-115170703D01*
X157345313Y-114295238D02*
X157783046Y-113857505D01*
X157816717Y-114362581D01*
X157917733Y-114261565D01*
X158018748Y-114227894D01*
X158086092Y-114227894D01*
X158187107Y-114261566D01*
X158355466Y-114429925D01*
X158389138Y-114530940D01*
X158389138Y-114598283D01*
X158355466Y-114699298D01*
X158153435Y-114901329D01*
X158052420Y-114935001D01*
X157985076Y-114935001D01*
X158119763Y-113655474D02*
X158119763Y-113588131D01*
X158153435Y-113487116D01*
X158321794Y-113318756D01*
X158422810Y-113285085D01*
X158490153Y-113285085D01*
X158591168Y-113318756D01*
X158658512Y-113386100D01*
X158725855Y-113520787D01*
X158725855Y-114328909D01*
X159163588Y-113891176D01*
X159163587Y-113083054D02*
X159062572Y-113116726D01*
X158995229Y-113116726D01*
X158894214Y-113083054D01*
X158860542Y-113049383D01*
X158826870Y-112948368D01*
X158826870Y-112881024D01*
X158860542Y-112780009D01*
X158995229Y-112645321D01*
X159096245Y-112611650D01*
X159163588Y-112611650D01*
X159264603Y-112645321D01*
X159298275Y-112678993D01*
X159331947Y-112780008D01*
X159331947Y-112847352D01*
X159298275Y-112948367D01*
X159163587Y-113083054D01*
X159129916Y-113184070D01*
X159129916Y-113251413D01*
X159163588Y-113352429D01*
X159298275Y-113487116D01*
X159399290Y-113520787D01*
X159466633Y-113520787D01*
X159567649Y-113487116D01*
X159702336Y-113352428D01*
X159736008Y-113251413D01*
X159736008Y-113184070D01*
X159702336Y-113083054D01*
X159567649Y-112948368D01*
X159466633Y-112914695D01*
X159399290Y-112914695D01*
X159298275Y-112948367D01*
X159870695Y-112645322D02*
X160409443Y-112106574D01*
X161015534Y-112039230D02*
X160308427Y-111332124D01*
X160577802Y-111062749D01*
X160678817Y-111029077D01*
X160746160Y-111029077D01*
X160847175Y-111062749D01*
X160948190Y-111163764D01*
X160981862Y-111264780D01*
X160981862Y-111332123D01*
X160948190Y-111433138D01*
X160678816Y-111702513D01*
X127214381Y-111624857D02*
X127214381Y-111529618D01*
X127262000Y-111434380D01*
X127309619Y-111386761D01*
X127404857Y-111339142D01*
X127595333Y-111291523D01*
X127833429Y-111291523D01*
X128023905Y-111339142D01*
X128119143Y-111386761D01*
X128166762Y-111434380D01*
X128214381Y-111529618D01*
X128214381Y-111624857D01*
X128166762Y-111720095D01*
X128119143Y-111767714D01*
X128023905Y-111815333D01*
X127833429Y-111862952D01*
X127595333Y-111862952D01*
X127404857Y-111815333D01*
X127309619Y-111767714D01*
X127262000Y-111720095D01*
X127214381Y-111624857D01*
X128119143Y-110862952D02*
X128166762Y-110815333D01*
X128214381Y-110862952D01*
X128166762Y-110910571D01*
X128119143Y-110862952D01*
X128214381Y-110862952D01*
X128214381Y-109862952D02*
X128214381Y-110434381D01*
X128214381Y-110148667D02*
X127214381Y-110148667D01*
X127357238Y-110243905D01*
X127452476Y-110339143D01*
X127500095Y-110434381D01*
X127547714Y-109005809D02*
X128214381Y-109005809D01*
X127547714Y-109434381D02*
X128071524Y-109434381D01*
X128166762Y-109386762D01*
X128214381Y-109291524D01*
X128214381Y-109148666D01*
X128166762Y-109053428D01*
X128119143Y-109005809D01*
X127690571Y-108196285D02*
X127690571Y-108529619D01*
X128214381Y-108529619D02*
X127214381Y-108529619D01*
X127214381Y-108053428D01*
X133296921Y-115371428D02*
X133296921Y-115942857D01*
X133296921Y-115657143D02*
X132296921Y-115657143D01*
X132439778Y-115752381D01*
X132535016Y-115847619D01*
X132582635Y-115942857D01*
X132296921Y-114752381D02*
X132296921Y-114657142D01*
X132344540Y-114561904D01*
X132392159Y-114514285D01*
X132487397Y-114466666D01*
X132677873Y-114419047D01*
X132915969Y-114419047D01*
X133106445Y-114466666D01*
X133201683Y-114514285D01*
X133249302Y-114561904D01*
X133296921Y-114657142D01*
X133296921Y-114752381D01*
X133249302Y-114847619D01*
X133201683Y-114895238D01*
X133106445Y-114942857D01*
X132915969Y-114990476D01*
X132677873Y-114990476D01*
X132487397Y-114942857D01*
X132392159Y-114895238D01*
X132344540Y-114847619D01*
X132296921Y-114752381D01*
X132630254Y-113561904D02*
X133296921Y-113561904D01*
X132630254Y-113990476D02*
X133154064Y-113990476D01*
X133249302Y-113942857D01*
X133296921Y-113847619D01*
X133296921Y-113704761D01*
X133249302Y-113609523D01*
X133201683Y-113561904D01*
X132773111Y-112752380D02*
X132773111Y-113085714D01*
X133296921Y-113085714D02*
X132296921Y-113085714D01*
X132296921Y-112609523D01*
X158357143Y-103552381D02*
X158452382Y-103552381D01*
X158547620Y-103600000D01*
X158595239Y-103647619D01*
X158642858Y-103742857D01*
X158690477Y-103933333D01*
X158690477Y-104171429D01*
X158642858Y-104361905D01*
X158595239Y-104457143D01*
X158547620Y-104504762D01*
X158452382Y-104552381D01*
X158357143Y-104552381D01*
X158261905Y-104504762D01*
X158214286Y-104457143D01*
X158166667Y-104361905D01*
X158119048Y-104171429D01*
X158119048Y-103933333D01*
X158166667Y-103742857D01*
X158214286Y-103647619D01*
X158261905Y-103600000D01*
X158357143Y-103552381D01*
X159119048Y-104457143D02*
X159166667Y-104504762D01*
X159119048Y-104552381D01*
X159071429Y-104504762D01*
X159119048Y-104457143D01*
X159119048Y-104552381D01*
X160119048Y-104552381D02*
X159547619Y-104552381D01*
X159833333Y-104552381D02*
X159833333Y-103552381D01*
X159738095Y-103695238D01*
X159642857Y-103790476D01*
X159547619Y-103838095D01*
X160976191Y-103885714D02*
X160976191Y-104552381D01*
X160547619Y-103885714D02*
X160547619Y-104409524D01*
X160595238Y-104504762D01*
X160690476Y-104552381D01*
X160833334Y-104552381D01*
X160928572Y-104504762D01*
X160976191Y-104457143D01*
X161785715Y-104028571D02*
X161452381Y-104028571D01*
X161452381Y-104552381D02*
X161452381Y-103552381D01*
X161928572Y-103552381D01*
X121307143Y-104232381D02*
X120830952Y-104232381D01*
X120830952Y-103232381D01*
X121640476Y-103708571D02*
X121973810Y-103708571D01*
X122116667Y-104232381D02*
X121640476Y-104232381D01*
X121640476Y-103232381D01*
X122116667Y-103232381D01*
X122545238Y-104232381D02*
X122545238Y-103232381D01*
X122783333Y-103232381D01*
X122926191Y-103280000D01*
X123021429Y-103375238D01*
X123069048Y-103470476D01*
X123116667Y-103660952D01*
X123116667Y-103803810D01*
X123069048Y-103994286D01*
X123021429Y-104089524D01*
X122926191Y-104184762D01*
X122783333Y-104232381D01*
X122545238Y-104232381D01*
X119610476Y-123007381D02*
X119610476Y-122007381D01*
X119991429Y-122007381D01*
X120086667Y-122055000D01*
X120134286Y-122102619D01*
X120181905Y-122197857D01*
X120181905Y-122340714D01*
X120134286Y-122435952D01*
X120086667Y-122483571D01*
X119991429Y-122531190D01*
X119610476Y-122531190D01*
X120800952Y-122007381D02*
X120991429Y-122007381D01*
X121086667Y-122055000D01*
X121181905Y-122150238D01*
X121229524Y-122340714D01*
X121229524Y-122674048D01*
X121181905Y-122864524D01*
X121086667Y-122959762D01*
X120991429Y-123007381D01*
X120800952Y-123007381D01*
X120705714Y-122959762D01*
X120610476Y-122864524D01*
X120562857Y-122674048D01*
X120562857Y-122340714D01*
X120610476Y-122150238D01*
X120705714Y-122055000D01*
X120800952Y-122007381D01*
X121562857Y-122007381D02*
X121800952Y-123007381D01*
X121991429Y-122293095D01*
X122181905Y-123007381D01*
X122420000Y-122007381D01*
X122800952Y-122483571D02*
X123134286Y-122483571D01*
X123277143Y-123007381D02*
X122800952Y-123007381D01*
X122800952Y-122007381D01*
X123277143Y-122007381D01*
X124277143Y-123007381D02*
X123943809Y-122531190D01*
X123705714Y-123007381D02*
X123705714Y-122007381D01*
X124086667Y-122007381D01*
X124181905Y-122055000D01*
X124229524Y-122102619D01*
X124277143Y-122197857D01*
X124277143Y-122340714D01*
X124229524Y-122435952D01*
X124181905Y-122483571D01*
X124086667Y-122531190D01*
X123705714Y-122531190D01*
X137390476Y-128214381D02*
X137390476Y-127214381D01*
X137771429Y-127214381D01*
X137866667Y-127262000D01*
X137914286Y-127309619D01*
X137961905Y-127404857D01*
X137961905Y-127547714D01*
X137914286Y-127642952D01*
X137866667Y-127690571D01*
X137771429Y-127738190D01*
X137390476Y-127738190D01*
X138580952Y-127214381D02*
X138771429Y-127214381D01*
X138866667Y-127262000D01*
X138961905Y-127357238D01*
X139009524Y-127547714D01*
X139009524Y-127881048D01*
X138961905Y-128071524D01*
X138866667Y-128166762D01*
X138771429Y-128214381D01*
X138580952Y-128214381D01*
X138485714Y-128166762D01*
X138390476Y-128071524D01*
X138342857Y-127881048D01*
X138342857Y-127547714D01*
X138390476Y-127357238D01*
X138485714Y-127262000D01*
X138580952Y-127214381D01*
X139342857Y-127214381D02*
X139580952Y-128214381D01*
X139771429Y-127500095D01*
X139961905Y-128214381D01*
X140200000Y-127214381D01*
X140580952Y-127690571D02*
X140914286Y-127690571D01*
X141057143Y-128214381D02*
X140580952Y-128214381D01*
X140580952Y-127214381D01*
X141057143Y-127214381D01*
X142057143Y-128214381D02*
X141723809Y-127738190D01*
X141485714Y-128214381D02*
X141485714Y-127214381D01*
X141866667Y-127214381D01*
X141961905Y-127262000D01*
X142009524Y-127309619D01*
X142057143Y-127404857D01*
X142057143Y-127547714D01*
X142009524Y-127642952D01*
X141961905Y-127690571D01*
X141866667Y-127738190D01*
X141485714Y-127738190D01*
X155368952Y-127674667D02*
X155845143Y-127674667D01*
X155273714Y-127960381D02*
X155607047Y-126960381D01*
X155940381Y-127960381D01*
X156273714Y-127960381D02*
X156273714Y-126960381D01*
X156845143Y-127960381D01*
X156845143Y-126960381D01*
X157273714Y-127674667D02*
X157749905Y-127674667D01*
X157178476Y-127960381D02*
X157511809Y-126960381D01*
X157845143Y-127960381D01*
X158654667Y-127960381D02*
X158178476Y-127960381D01*
X158178476Y-126960381D01*
X159178476Y-126960381D02*
X159368953Y-126960381D01*
X159464191Y-127008000D01*
X159559429Y-127103238D01*
X159607048Y-127293714D01*
X159607048Y-127627048D01*
X159559429Y-127817524D01*
X159464191Y-127912762D01*
X159368953Y-127960381D01*
X159178476Y-127960381D01*
X159083238Y-127912762D01*
X158988000Y-127817524D01*
X158940381Y-127627048D01*
X158940381Y-127293714D01*
X158988000Y-127103238D01*
X159083238Y-127008000D01*
X159178476Y-126960381D01*
X160559429Y-127008000D02*
X160464191Y-126960381D01*
X160321334Y-126960381D01*
X160178476Y-127008000D01*
X160083238Y-127103238D01*
X160035619Y-127198476D01*
X159988000Y-127388952D01*
X159988000Y-127531810D01*
X160035619Y-127722286D01*
X160083238Y-127817524D01*
X160178476Y-127912762D01*
X160321334Y-127960381D01*
X160416572Y-127960381D01*
X160559429Y-127912762D01*
X160607048Y-127865143D01*
X160607048Y-127531810D01*
X160416572Y-127531810D01*
X168044762Y-109497524D02*
X168092381Y-109354667D01*
X168092381Y-109116571D01*
X168044762Y-109021333D01*
X167997143Y-108973714D01*
X167901905Y-108926095D01*
X167806667Y-108926095D01*
X167711429Y-108973714D01*
X167663810Y-109021333D01*
X167616190Y-109116571D01*
X167568571Y-109307048D01*
X167520952Y-109402286D01*
X167473333Y-109449905D01*
X167378095Y-109497524D01*
X167282857Y-109497524D01*
X167187619Y-109449905D01*
X167140000Y-109402286D01*
X167092381Y-109307048D01*
X167092381Y-109068952D01*
X167140000Y-108926095D01*
X167568571Y-108497524D02*
X167568571Y-108164190D01*
X168092381Y-108021333D02*
X168092381Y-108497524D01*
X167092381Y-108497524D01*
X167092381Y-108021333D01*
X168092381Y-107021333D02*
X167616190Y-107354667D01*
X168092381Y-107592762D02*
X167092381Y-107592762D01*
X167092381Y-107211809D01*
X167140000Y-107116571D01*
X167187619Y-107068952D01*
X167282857Y-107021333D01*
X167425714Y-107021333D01*
X167520952Y-107068952D01*
X167568571Y-107116571D01*
X167616190Y-107211809D01*
X167616190Y-107592762D01*
X168092381Y-106592762D02*
X167092381Y-106592762D01*
X167806667Y-106164191D02*
X167806667Y-105688000D01*
X168092381Y-106259429D02*
X167092381Y-105926096D01*
X168092381Y-105592762D01*
X168092381Y-104783238D02*
X168092381Y-105259429D01*
X167092381Y-105259429D01*
X149265238Y-76144381D02*
X149265238Y-75144381D01*
X149503333Y-75144381D01*
X149646191Y-75192000D01*
X149741429Y-75287238D01*
X149789048Y-75382476D01*
X149836667Y-75572952D01*
X149836667Y-75715810D01*
X149789048Y-75906286D01*
X149741429Y-76001524D01*
X149646191Y-76096762D01*
X149503333Y-76144381D01*
X149265238Y-76144381D01*
X150265238Y-76144381D02*
X150265238Y-75144381D01*
X151265238Y-75192000D02*
X151170000Y-75144381D01*
X151027143Y-75144381D01*
X150884285Y-75192000D01*
X150789047Y-75287238D01*
X150741428Y-75382476D01*
X150693809Y-75572952D01*
X150693809Y-75715810D01*
X150741428Y-75906286D01*
X150789047Y-76001524D01*
X150884285Y-76096762D01*
X151027143Y-76144381D01*
X151122381Y-76144381D01*
X151265238Y-76096762D01*
X151312857Y-76049143D01*
X151312857Y-75715810D01*
X151122381Y-75715810D01*
X151741428Y-76144381D02*
X151741428Y-75144381D01*
X152074761Y-75144381D02*
X152646190Y-75144381D01*
X152360475Y-76144381D02*
X152360475Y-75144381D01*
X152931904Y-75858667D02*
X153408095Y-75858667D01*
X152836666Y-76144381D02*
X153169999Y-75144381D01*
X153503333Y-76144381D01*
X154312857Y-76144381D02*
X153836666Y-76144381D01*
X153836666Y-75144381D01*
X155598571Y-75144381D02*
X155693810Y-75144381D01*
X155789048Y-75192000D01*
X155836667Y-75239619D01*
X155884286Y-75334857D01*
X155931905Y-75525333D01*
X155931905Y-75763429D01*
X155884286Y-75953905D01*
X155836667Y-76049143D01*
X155789048Y-76096762D01*
X155693810Y-76144381D01*
X155598571Y-76144381D01*
X155503333Y-76096762D01*
X155455714Y-76049143D01*
X155408095Y-75953905D01*
X155360476Y-75763429D01*
X155360476Y-75525333D01*
X155408095Y-75334857D01*
X155455714Y-75239619D01*
X155503333Y-75192000D01*
X155598571Y-75144381D01*
X156360476Y-75763429D02*
X157122381Y-75763429D01*
X157503333Y-75144381D02*
X158170000Y-75144381D01*
X157741428Y-76144381D01*
X128215048Y-76144381D02*
X128215048Y-75144381D01*
X128453143Y-75144381D01*
X128596001Y-75192000D01*
X128691239Y-75287238D01*
X128738858Y-75382476D01*
X128786477Y-75572952D01*
X128786477Y-75715810D01*
X128738858Y-75906286D01*
X128691239Y-76001524D01*
X128596001Y-76096762D01*
X128453143Y-76144381D01*
X128215048Y-76144381D01*
X129215048Y-76144381D02*
X129215048Y-75144381D01*
X130215048Y-75192000D02*
X130119810Y-75144381D01*
X129976953Y-75144381D01*
X129834095Y-75192000D01*
X129738857Y-75287238D01*
X129691238Y-75382476D01*
X129643619Y-75572952D01*
X129643619Y-75715810D01*
X129691238Y-75906286D01*
X129738857Y-76001524D01*
X129834095Y-76096762D01*
X129976953Y-76144381D01*
X130072191Y-76144381D01*
X130215048Y-76096762D01*
X130262667Y-76049143D01*
X130262667Y-75715810D01*
X130072191Y-75715810D01*
X130691238Y-76144381D02*
X130691238Y-75144381D01*
X131024571Y-75144381D02*
X131596000Y-75144381D01*
X131310285Y-76144381D02*
X131310285Y-75144381D01*
X131881714Y-75858667D02*
X132357905Y-75858667D01*
X131786476Y-76144381D02*
X132119809Y-75144381D01*
X132453143Y-76144381D01*
X133262667Y-76144381D02*
X132786476Y-76144381D01*
X132786476Y-75144381D01*
X134500762Y-75572952D02*
X134405524Y-75525333D01*
X134357905Y-75477714D01*
X134310286Y-75382476D01*
X134310286Y-75334857D01*
X134357905Y-75239619D01*
X134405524Y-75192000D01*
X134500762Y-75144381D01*
X134691239Y-75144381D01*
X134786477Y-75192000D01*
X134834096Y-75239619D01*
X134881715Y-75334857D01*
X134881715Y-75382476D01*
X134834096Y-75477714D01*
X134786477Y-75525333D01*
X134691239Y-75572952D01*
X134500762Y-75572952D01*
X134405524Y-75620571D01*
X134357905Y-75668190D01*
X134310286Y-75763429D01*
X134310286Y-75953905D01*
X134357905Y-76049143D01*
X134405524Y-76096762D01*
X134500762Y-76144381D01*
X134691239Y-76144381D01*
X134786477Y-76096762D01*
X134834096Y-76049143D01*
X134881715Y-75953905D01*
X134881715Y-75763429D01*
X134834096Y-75668190D01*
X134786477Y-75620571D01*
X134691239Y-75572952D01*
X135310286Y-75763429D02*
X136072191Y-75763429D01*
X137072191Y-76144381D02*
X136500762Y-76144381D01*
X136786476Y-76144381D02*
X136786476Y-75144381D01*
X136691238Y-75287238D01*
X136596000Y-75382476D01*
X136500762Y-75430095D01*
X137405524Y-75144381D02*
X138024572Y-75144381D01*
X137691238Y-75525333D01*
X137834096Y-75525333D01*
X137929334Y-75572952D01*
X137976953Y-75620571D01*
X138024572Y-75715810D01*
X138024572Y-75953905D01*
X137976953Y-76049143D01*
X137929334Y-76096762D01*
X137834096Y-76144381D01*
X137548381Y-76144381D01*
X137453143Y-76096762D01*
X137405524Y-76049143D01*
X134651905Y-121372381D02*
X135270953Y-121372381D01*
X134937619Y-121753333D01*
X135080477Y-121753333D01*
X135175715Y-121800952D01*
X135223334Y-121848571D01*
X135270953Y-121943810D01*
X135270953Y-122181905D01*
X135223334Y-122277143D01*
X135175715Y-122324762D01*
X135080477Y-122372381D01*
X134794762Y-122372381D01*
X134699524Y-122324762D01*
X134651905Y-122277143D01*
X135556667Y-121372381D02*
X135890000Y-122372381D01*
X136223334Y-121372381D01*
X136461429Y-121372381D02*
X137080477Y-121372381D01*
X136747143Y-121753333D01*
X136890001Y-121753333D01*
X136985239Y-121800952D01*
X137032858Y-121848571D01*
X137080477Y-121943810D01*
X137080477Y-122181905D01*
X137032858Y-122277143D01*
X136985239Y-122324762D01*
X136890001Y-122372381D01*
X136604286Y-122372381D01*
X136509048Y-122324762D01*
X136461429Y-122277143D01*
X142414762Y-121372381D02*
X142748095Y-122372381D01*
X143081429Y-121372381D01*
X143414762Y-122372381D02*
X143414762Y-121372381D01*
X143890952Y-122372381D02*
X143890952Y-121372381D01*
X144462381Y-122372381D01*
X144462381Y-121372381D01*
X129420953Y-102814381D02*
X128849524Y-102814381D01*
X129135238Y-102814381D02*
X129135238Y-101814381D01*
X129040000Y-101957238D01*
X128944762Y-102052476D01*
X128849524Y-102100095D01*
X129849524Y-102814381D02*
X129849524Y-101814381D01*
X129944762Y-102433429D02*
X130230477Y-102814381D01*
X130230477Y-102147714D02*
X129849524Y-102528667D01*
X136532953Y-121102381D02*
X135961524Y-121102381D01*
X136247238Y-121102381D02*
X136247238Y-120102381D01*
X136152000Y-120245238D01*
X136056762Y-120340476D01*
X135961524Y-120388095D01*
X136961524Y-121102381D02*
X136961524Y-120102381D01*
X137056762Y-120721429D02*
X137342477Y-121102381D01*
X137342477Y-120435714D02*
X136961524Y-120816667D01*
X126404762Y-118562381D02*
X125833333Y-118562381D01*
X126119047Y-118562381D02*
X126119047Y-117562381D01*
X126023809Y-117705238D01*
X125928571Y-117800476D01*
X125833333Y-117848095D01*
X127023809Y-117562381D02*
X127119048Y-117562381D01*
X127214286Y-117610000D01*
X127261905Y-117657619D01*
X127309524Y-117752857D01*
X127357143Y-117943333D01*
X127357143Y-118181429D01*
X127309524Y-118371905D01*
X127261905Y-118467143D01*
X127214286Y-118514762D01*
X127119048Y-118562381D01*
X127023809Y-118562381D01*
X126928571Y-118514762D01*
X126880952Y-118467143D01*
X126833333Y-118371905D01*
X126785714Y-118181429D01*
X126785714Y-117943333D01*
X126833333Y-117752857D01*
X126880952Y-117657619D01*
X126928571Y-117610000D01*
X127023809Y-117562381D01*
X127785714Y-118562381D02*
X127785714Y-117562381D01*
X127880952Y-118181429D02*
X128166667Y-118562381D01*
X128166667Y-117895714D02*
X127785714Y-118276667D01*
X161694762Y-93431905D02*
X161742381Y-93289048D01*
X161742381Y-93050952D01*
X161694762Y-92955714D01*
X161647143Y-92908095D01*
X161551905Y-92860476D01*
X161456667Y-92860476D01*
X161361429Y-92908095D01*
X161313810Y-92955714D01*
X161266190Y-93050952D01*
X161218571Y-93241429D01*
X161170952Y-93336667D01*
X161123333Y-93384286D01*
X161028095Y-93431905D01*
X160932857Y-93431905D01*
X160837619Y-93384286D01*
X160790000Y-93336667D01*
X160742381Y-93241429D01*
X160742381Y-93003333D01*
X160790000Y-92860476D01*
X160742381Y-92527143D02*
X161742381Y-92289048D01*
X161028095Y-92098571D01*
X161742381Y-91908095D01*
X160742381Y-91670000D01*
X161837619Y-91527143D02*
X161837619Y-90765238D01*
X161742381Y-90527143D02*
X160742381Y-90527143D01*
X160742381Y-90146190D01*
X160790000Y-90050952D01*
X160837619Y-90003333D01*
X160932857Y-89955714D01*
X161075714Y-89955714D01*
X161170952Y-90003333D01*
X161218571Y-90050952D01*
X161266190Y-90146190D01*
X161266190Y-90527143D01*
X160742381Y-89527143D02*
X161551905Y-89527143D01*
X161647143Y-89479524D01*
X161694762Y-89431905D01*
X161742381Y-89336667D01*
X161742381Y-89146190D01*
X161694762Y-89050952D01*
X161647143Y-89003333D01*
X161551905Y-88955714D01*
X160742381Y-88955714D01*
X161694762Y-88527143D02*
X161742381Y-88384286D01*
X161742381Y-88146190D01*
X161694762Y-88050952D01*
X161647143Y-88003333D01*
X161551905Y-87955714D01*
X161456667Y-87955714D01*
X161361429Y-88003333D01*
X161313810Y-88050952D01*
X161266190Y-88146190D01*
X161218571Y-88336667D01*
X161170952Y-88431905D01*
X161123333Y-88479524D01*
X161028095Y-88527143D01*
X160932857Y-88527143D01*
X160837619Y-88479524D01*
X160790000Y-88431905D01*
X160742381Y-88336667D01*
X160742381Y-88098571D01*
X160790000Y-87955714D01*
X161742381Y-87527143D02*
X160742381Y-87527143D01*
X161218571Y-87527143D02*
X161218571Y-86955714D01*
X161742381Y-86955714D02*
X160742381Y-86955714D01*
X146805398Y-87755160D02*
X146401336Y-87351099D01*
X146603367Y-87553129D02*
X147310473Y-86846022D01*
X147142115Y-86879694D01*
X147007428Y-86879694D01*
X146906413Y-86846022D01*
X148118596Y-87654145D02*
X147983908Y-87519457D01*
X147882893Y-87485785D01*
X147815550Y-87485785D01*
X147647191Y-87519457D01*
X147478833Y-87620472D01*
X147209458Y-87889847D01*
X147175786Y-87990862D01*
X147175786Y-88058205D01*
X147209458Y-88159221D01*
X147344146Y-88293908D01*
X147445161Y-88327580D01*
X147512504Y-88327580D01*
X147613519Y-88293908D01*
X147781878Y-88125549D01*
X147815550Y-88024534D01*
X147815550Y-87957190D01*
X147781879Y-87856175D01*
X147647191Y-87721487D01*
X147546176Y-87687816D01*
X147478833Y-87687816D01*
X147377817Y-87721488D01*
X148320626Y-89270389D02*
X149027733Y-88563282D01*
X148758359Y-89304061D01*
X149499138Y-89034687D01*
X148792031Y-89741793D01*
X149128748Y-90078511D02*
X149835855Y-89371404D01*
X149499138Y-89708121D02*
X149903199Y-90112182D01*
X149532810Y-90482572D02*
X150239916Y-89775465D01*
X150273588Y-90280541D02*
X150643978Y-90650930D01*
X149802183Y-90751946D01*
X150172573Y-91122335D01*
X134866667Y-107147750D02*
X134934011Y-107215094D01*
X134967683Y-107316109D01*
X134967683Y-107383452D01*
X134934011Y-107484467D01*
X134832996Y-107652826D01*
X134664636Y-107821185D01*
X134496278Y-107922200D01*
X134395263Y-107955872D01*
X134327919Y-107955872D01*
X134226904Y-107922200D01*
X134159560Y-107854856D01*
X134125888Y-107753841D01*
X134125888Y-107686498D01*
X134159560Y-107585483D01*
X134260575Y-107417124D01*
X134428934Y-107248765D01*
X134597293Y-107147750D01*
X134698308Y-107114078D01*
X134765652Y-107114078D01*
X134866667Y-107147750D01*
X134765652Y-108326261D02*
X134765652Y-108393605D01*
X134698308Y-108393605D01*
X134698308Y-108326261D01*
X134765652Y-108326261D01*
X134698308Y-108393605D01*
X135405415Y-109100711D02*
X135001354Y-108696650D01*
X135203384Y-108898680D02*
X135910491Y-108191574D01*
X135742132Y-108225245D01*
X135607445Y-108225245D01*
X135506430Y-108191574D01*
X136482911Y-109235398D02*
X136011507Y-109706803D01*
X136179865Y-108932352D02*
X135809476Y-109302742D01*
X135775804Y-109403757D01*
X135809476Y-109504772D01*
X135910491Y-109605788D01*
X136011507Y-109639460D01*
X136078850Y-109639460D01*
X136954316Y-109908833D02*
X136718613Y-109673131D01*
X136348224Y-110043520D02*
X137055331Y-109336413D01*
X137392048Y-109673131D01*
M02*
