G04 #@! TF.FileFunction,Soldermask,Bot*
%FSLAX46Y46*%
G04 Gerber Fmt 4.6, Leading zero omitted, Abs format (unit mm)*
G04 Created by KiCad (PCBNEW 4.0.3+e1-6302~38~ubuntu16.04.1-stable) date Sun Aug 28 00:05:30 2016*
%MOMM*%
%LPD*%
G01*
G04 APERTURE LIST*
%ADD10C,0.100000*%
%ADD11R,2.398980X2.398980*%
%ADD12C,2.398980*%
%ADD13O,2.000000X2.000000*%
%ADD14R,2.000000X2.000000*%
%ADD15O,2.051000X2.051000*%
%ADD16R,2.051000X2.051000*%
%ADD17C,2.000000*%
%ADD18R,2.400000X2.400000*%
%ADD19C,2.400000*%
%ADD20R,2.000000X2.700000*%
%ADD21O,2.000000X2.700000*%
%ADD22O,2.127200X2.432000*%
%ADD23R,2.432000X2.127200*%
%ADD24O,2.432000X2.127200*%
%ADD25O,2.635200X2.635200*%
%ADD26O,2.432000X2.432000*%
%ADD27R,2.432000X2.432000*%
%ADD28R,2.127200X2.127200*%
%ADD29O,2.127200X2.127200*%
%ADD30C,1.924000*%
%ADD31C,1.901140*%
%ADD32C,3.600000*%
G04 APERTURE END LIST*
D10*
D11*
X144780000Y-67310000D03*
X144780000Y-69850000D03*
X144780000Y-72390000D03*
X144780000Y-74930000D03*
X144780000Y-77470000D03*
X144780000Y-80010000D03*
D12*
X144780000Y-107950000D03*
X144780000Y-105410000D03*
X144780000Y-102870000D03*
X144780000Y-100330000D03*
X144780000Y-97790000D03*
X144780000Y-95250000D03*
X144780000Y-92710000D03*
X144780000Y-90170000D03*
X144780000Y-87630000D03*
D11*
X144780000Y-82550000D03*
X142240000Y-82550000D03*
X139700000Y-82550000D03*
X137160000Y-82550000D03*
X134620000Y-82550000D03*
X132080000Y-82550000D03*
D12*
X144780000Y-85090000D03*
X142240000Y-85090000D03*
X139700000Y-85090000D03*
X137160000Y-85090000D03*
X134620000Y-85090000D03*
X132080000Y-85090000D03*
X129540000Y-85090000D03*
D11*
X129540000Y-82550000D03*
D12*
X139700000Y-62230000D03*
X142240000Y-105410000D03*
X139700000Y-105410000D03*
X137160000Y-107950000D03*
X134620000Y-107950000D03*
X132080000Y-107950000D03*
X129540000Y-107950000D03*
X137160000Y-105410000D03*
X134620000Y-105410000D03*
X132080000Y-105410000D03*
X129540000Y-105410000D03*
X142240000Y-102870000D03*
X139700000Y-102870000D03*
X137160000Y-102870000D03*
X134620000Y-102870000D03*
X132080000Y-102870000D03*
X129540000Y-102870000D03*
X142240000Y-100330000D03*
X139700000Y-100330000D03*
X137160000Y-100330000D03*
X134620000Y-100330000D03*
X132080000Y-100330000D03*
X129540000Y-100330000D03*
X142240000Y-97790000D03*
X139700000Y-97790000D03*
X137160000Y-97790000D03*
X134620000Y-97790000D03*
X132080000Y-97790000D03*
X129540000Y-97790000D03*
X142240000Y-95250000D03*
X139700000Y-95250000D03*
X137160000Y-95250000D03*
X134620000Y-95250000D03*
X132080000Y-95250000D03*
X129540000Y-95250000D03*
X142240000Y-92710000D03*
X139700000Y-92710000D03*
X137160000Y-92710000D03*
X134620000Y-92710000D03*
X132080000Y-92710000D03*
X129540000Y-92710000D03*
X142240000Y-90170000D03*
X139700000Y-90170000D03*
X137160000Y-90170000D03*
X134620000Y-90170000D03*
X132080000Y-90170000D03*
X129540000Y-90170000D03*
X142240000Y-87630000D03*
X139700000Y-87630000D03*
X137160000Y-87630000D03*
X134620000Y-87630000D03*
X132080000Y-87630000D03*
X129540000Y-87630000D03*
X142240000Y-80010000D03*
X139700000Y-80010000D03*
X137160000Y-80010000D03*
X134620000Y-80010000D03*
X132080000Y-80010000D03*
X129540000Y-80010000D03*
X142240000Y-77470000D03*
X139700000Y-77470000D03*
X137160000Y-77470000D03*
X134620000Y-77470000D03*
X132080000Y-77470000D03*
X129540000Y-77470000D03*
X142240000Y-74930000D03*
X139700000Y-74930000D03*
X137160000Y-74930000D03*
X134620000Y-74930000D03*
X132080000Y-74930000D03*
X129540000Y-74930000D03*
X142240000Y-72390000D03*
X139700000Y-72390000D03*
X137160000Y-72390000D03*
X134620000Y-72390000D03*
X132080000Y-72390000D03*
X129540000Y-72390000D03*
X142240000Y-69850000D03*
X139700000Y-69850000D03*
X137160000Y-69850000D03*
X134620000Y-69850000D03*
X132080000Y-69850000D03*
X129540000Y-69850000D03*
X142240000Y-67310000D03*
X139700000Y-67310000D03*
X137160000Y-67310000D03*
X134620000Y-67310000D03*
X132080000Y-67310000D03*
X129540000Y-67310000D03*
X142240000Y-64770000D03*
X139700000Y-64770000D03*
X137160000Y-64770000D03*
X134620000Y-64770000D03*
X132080000Y-64770000D03*
X129540000Y-64770000D03*
X137160000Y-62230000D03*
X134620000Y-62230000D03*
X132080000Y-62230000D03*
X129540000Y-62230000D03*
X137160000Y-59690000D03*
X134620000Y-59690000D03*
X132080000Y-59690000D03*
D13*
X154940000Y-84455000D03*
D14*
X152440000Y-84455000D03*
D15*
X154940000Y-71501000D03*
D16*
X152400000Y-71501000D03*
D13*
X169291000Y-77470000D03*
D17*
X169291000Y-74970000D03*
D13*
X154940000Y-105664000D03*
D17*
X157440000Y-105664000D03*
D18*
X145796000Y-64008000D03*
D19*
X148336000Y-64008000D03*
D18*
X152400000Y-107950000D03*
D19*
X149860000Y-107950000D03*
D20*
X185420000Y-90170000D03*
D21*
X182880000Y-90170000D03*
X180340000Y-90170000D03*
X177800000Y-90170000D03*
X175260000Y-90170000D03*
X172720000Y-90170000D03*
X170180000Y-90170000D03*
X167640000Y-90170000D03*
X165100000Y-90170000D03*
X162560000Y-90170000D03*
X160020000Y-90170000D03*
X157480000Y-90170000D03*
X154940000Y-90170000D03*
X152400000Y-90170000D03*
X152400000Y-97790000D03*
X154940000Y-97790000D03*
X157480000Y-97790000D03*
X160020000Y-97790000D03*
X162560000Y-97790000D03*
X165100000Y-97790000D03*
X167640000Y-97790000D03*
X170180000Y-97790000D03*
X172720000Y-97790000D03*
X175260000Y-97790000D03*
X177800000Y-97790000D03*
X180340000Y-97790000D03*
X182880000Y-97790000D03*
X185420000Y-97790000D03*
D22*
X160020000Y-107950000D03*
X162560000Y-107950000D03*
X165100000Y-107950000D03*
X167640000Y-107950000D03*
X170180000Y-107950000D03*
X172720000Y-107950000D03*
X177800000Y-107950000D03*
X180340000Y-107950000D03*
X182880000Y-107950000D03*
X185420000Y-107950000D03*
X187960000Y-107950000D03*
X190500000Y-107950000D03*
D23*
X172720000Y-80010000D03*
D24*
X172720000Y-77470000D03*
X172720000Y-74930000D03*
X172720000Y-72390000D03*
X172720000Y-69850000D03*
X172720000Y-67310000D03*
D22*
X190500000Y-59690000D03*
X187960000Y-59690000D03*
X185420000Y-59690000D03*
X182880000Y-59690000D03*
X180340000Y-59690000D03*
X177800000Y-59690000D03*
X175260000Y-59690000D03*
X172720000Y-59690000D03*
X168656000Y-59690000D03*
X166116000Y-59690000D03*
X163576000Y-59690000D03*
X161036000Y-59690000D03*
X158496000Y-59690000D03*
X155956000Y-59690000D03*
X153416000Y-59690000D03*
X150876000Y-59690000D03*
D25*
X162560000Y-105410000D03*
X172720000Y-105410000D03*
D26*
X154940000Y-80645000D03*
D27*
X152400000Y-80645000D03*
D26*
X154940000Y-77470000D03*
D27*
X152400000Y-77470000D03*
D28*
X190627000Y-80010000D03*
D29*
X193167000Y-80010000D03*
X190627000Y-82550000D03*
X193167000Y-82550000D03*
X190627000Y-85090000D03*
X193167000Y-85090000D03*
D30*
X163957000Y-66167000D03*
X153797000Y-66167000D03*
X147320000Y-102870000D03*
X157480000Y-102870000D03*
X159131000Y-80645000D03*
X169291000Y-80645000D03*
D17*
X193040000Y-88900000D03*
X193040000Y-95400000D03*
D31*
X166469060Y-85090000D03*
X171350940Y-85090000D03*
X168910000Y-85090000D03*
D32*
X193040000Y-74930000D03*
X193040000Y-102870000D03*
X140970000Y-107950000D03*
X142240000Y-59690000D03*
D12*
X129540000Y-59690000D03*
M02*
