M48
INCH,TZ
T1C0.016
T2C0.031
T3C0.032
T4C0.032
T5C0.039
T6C0.040
T7C0.126
%
G90
G05
T1
X59800Y-34400
X64400Y-37200
X64600Y-37500
X65500Y-37750
X66000Y-37200
X66550Y-37500
X69000Y-41400
T2
X60000Y-35500
X60000Y-38500
X61000Y-35500
X61000Y-38500
X62000Y-35500
X62000Y-38500
X63000Y-35500
X63000Y-38500
X64000Y-35500
X64000Y-38500
X65000Y-35500
X65000Y-38500
X66000Y-35500
X66000Y-38500
X67000Y-35500
X67000Y-38500
X68000Y-35500
X68000Y-38500
X69000Y-35500
X69000Y-38500
X70000Y-35500
X70000Y-38500
X71000Y-35500
X71000Y-38500
X72000Y-35500
X72000Y-38500
X73000Y-35500
X73000Y-38500
T3
X51000Y-23500
X51000Y-24500
X51000Y-25500
X51000Y-26500
X51000Y-27500
X51000Y-28500
X51000Y-29500
X51000Y-30500
X51000Y-31500
X51000Y-32500
X51000Y-33500
X51000Y-34500
X51000Y-35500
X51000Y-36500
X51000Y-37500
X51000Y-38500
X51000Y-39500
X51000Y-40500
X51000Y-41500
X51000Y-42500
X52000Y-23500
X52000Y-24500
X52000Y-25500
X52000Y-26500
X52000Y-27500
X52000Y-28500
X52000Y-29500
X52000Y-30500
X52000Y-31500
X52000Y-32500
X52000Y-33500
X52000Y-34500
X52000Y-35500
X52000Y-36500
X52000Y-37500
X52000Y-38500
X52000Y-39500
X52000Y-40500
X52000Y-41500
X52000Y-42500
X53000Y-23500
X53000Y-24500
X53000Y-25500
X53000Y-26500
X53000Y-27500
X53000Y-28500
X53000Y-29500
X53000Y-30500
X53000Y-31500
X53000Y-32500
X53000Y-33500
X53000Y-34500
X53000Y-35500
X53000Y-36500
X53000Y-37500
X53000Y-38500
X53000Y-39500
X53000Y-40500
X53000Y-41500
X53000Y-42500
X54000Y-23500
X54000Y-24500
X54000Y-25500
X54000Y-26500
X54000Y-27500
X54000Y-28500
X54000Y-29500
X54000Y-30500
X54000Y-31500
X54000Y-32500
X54000Y-33500
X54000Y-34500
X54000Y-35500
X54000Y-36500
X54000Y-37500
X54000Y-38500
X54000Y-39500
X54000Y-40500
X54000Y-41500
X54000Y-42500
X55000Y-24500
X55000Y-25500
X55000Y-26500
X55000Y-27500
X55000Y-28500
X55000Y-29500
X55000Y-30500
X55000Y-31500
X55000Y-32500
X55000Y-33500
X55000Y-34500
X55000Y-35500
X55000Y-36500
X55000Y-37500
X55000Y-38500
X55000Y-39500
X55000Y-40500
X55000Y-41500
X56000Y-25500
X56000Y-26500
X56000Y-27500
X56000Y-28500
X56000Y-29500
X56000Y-30500
X56000Y-31500
X56000Y-32500
X56000Y-33500
X56000Y-34500
X56000Y-35500
X56000Y-36500
X56000Y-37500
X56000Y-38500
X56000Y-39500
X56000Y-40500
X56000Y-41500
X57000Y-26500
X57000Y-27500
X57000Y-28500
X57000Y-29500
X57000Y-30500
X57000Y-31500
X57000Y-32500
X57000Y-33500
X57000Y-34500
X57000Y-35500
X57000Y-36500
X57000Y-37500
X57000Y-38500
X57000Y-39500
X57000Y-40500
X57000Y-41500
X57000Y-42500
X65539Y-33500
X66500Y-33500
X67461Y-33500
T4
X58000Y-40500
X60000Y-28150
X60016Y-33250
X60550Y-26050
X61000Y-28150
X61000Y-33250
X61000Y-41600
X61984Y-41600
X62000Y-40500
X62650Y-31750
X64550Y-26050
X66650Y-29516
X66650Y-30500
X66650Y-31750
X76000Y-35000
X76000Y-37559
T5
X57400Y-25200
X58400Y-25200
X59000Y-42500
X60000Y-42500
T6
X59400Y-23500
X60000Y-30500
X60000Y-31750
X60400Y-23500
X61000Y-30500
X61000Y-31750
X61400Y-23500
X62400Y-23500
X63000Y-42500
X63400Y-23500
X64000Y-41500
X64000Y-42500
X64400Y-23500
X65000Y-42500
X65400Y-23500
X66000Y-42500
X66400Y-23500
X67000Y-42500
X68000Y-23500
X68000Y-26500
X68000Y-27500
X68000Y-28500
X68000Y-29500
X68000Y-30500
X68000Y-31500
X68000Y-41500
X68000Y-42500
X69000Y-23500
X70000Y-23500
X70000Y-42500
X71000Y-23500
X71000Y-42500
X72000Y-23500
X72000Y-42500
X73000Y-23500
X73000Y-42500
X74000Y-23500
X74000Y-42500
X75000Y-23500
X75000Y-42500
X75050Y-31500
X75050Y-32500
X75050Y-33500
X76050Y-31500
X76050Y-32500
X76050Y-33500
T7
X55500Y-42500
X56000Y-23500
X76000Y-29500
X76000Y-40500
T0
M30
