G04 #@! TF.FileFunction,Copper,L2,Bot,Signal*
%FSLAX46Y46*%
G04 Gerber Fmt 4.6, Leading zero omitted, Abs format (unit mm)*
G04 Created by KiCad (PCBNEW 4.0.3+e1-6302~38~ubuntu16.04.1-stable) date Sun Aug 28 00:05:30 2016*
%MOMM*%
%LPD*%
G01*
G04 APERTURE LIST*
%ADD10C,0.100000*%
%ADD11R,1.998980X1.998980*%
%ADD12C,1.998980*%
%ADD13O,1.600000X1.600000*%
%ADD14R,1.600000X1.600000*%
%ADD15O,1.651000X1.651000*%
%ADD16R,1.651000X1.651000*%
%ADD17C,1.600000*%
%ADD18R,2.000000X2.000000*%
%ADD19C,2.000000*%
%ADD20R,1.600000X2.300000*%
%ADD21O,1.600000X2.300000*%
%ADD22O,1.727200X2.032000*%
%ADD23R,2.032000X1.727200*%
%ADD24O,2.032000X1.727200*%
%ADD25O,2.235200X2.235200*%
%ADD26O,2.032000X2.032000*%
%ADD27R,2.032000X2.032000*%
%ADD28R,1.727200X1.727200*%
%ADD29O,1.727200X1.727200*%
%ADD30C,1.524000*%
%ADD31C,1.501140*%
%ADD32C,0.600000*%
%ADD33C,0.500000*%
%ADD34C,0.250000*%
G04 APERTURE END LIST*
D10*
D11*
X144780000Y-67310000D03*
X144780000Y-69850000D03*
X144780000Y-72390000D03*
X144780000Y-74930000D03*
X144780000Y-77470000D03*
X144780000Y-80010000D03*
D12*
X144780000Y-107950000D03*
X144780000Y-105410000D03*
X144780000Y-102870000D03*
X144780000Y-100330000D03*
X144780000Y-97790000D03*
X144780000Y-95250000D03*
X144780000Y-92710000D03*
X144780000Y-90170000D03*
X144780000Y-87630000D03*
D11*
X144780000Y-82550000D03*
X142240000Y-82550000D03*
X139700000Y-82550000D03*
X137160000Y-82550000D03*
X134620000Y-82550000D03*
X132080000Y-82550000D03*
D12*
X144780000Y-85090000D03*
X142240000Y-85090000D03*
X139700000Y-85090000D03*
X137160000Y-85090000D03*
X134620000Y-85090000D03*
X132080000Y-85090000D03*
X129540000Y-85090000D03*
D11*
X129540000Y-82550000D03*
D12*
X139700000Y-62230000D03*
X142240000Y-105410000D03*
X139700000Y-105410000D03*
X137160000Y-107950000D03*
X134620000Y-107950000D03*
X132080000Y-107950000D03*
X129540000Y-107950000D03*
X137160000Y-105410000D03*
X134620000Y-105410000D03*
X132080000Y-105410000D03*
X129540000Y-105410000D03*
X142240000Y-102870000D03*
X139700000Y-102870000D03*
X137160000Y-102870000D03*
X134620000Y-102870000D03*
X132080000Y-102870000D03*
X129540000Y-102870000D03*
X142240000Y-100330000D03*
X139700000Y-100330000D03*
X137160000Y-100330000D03*
X134620000Y-100330000D03*
X132080000Y-100330000D03*
X129540000Y-100330000D03*
X142240000Y-97790000D03*
X139700000Y-97790000D03*
X137160000Y-97790000D03*
X134620000Y-97790000D03*
X132080000Y-97790000D03*
X129540000Y-97790000D03*
X142240000Y-95250000D03*
X139700000Y-95250000D03*
X137160000Y-95250000D03*
X134620000Y-95250000D03*
X132080000Y-95250000D03*
X129540000Y-95250000D03*
X142240000Y-92710000D03*
X139700000Y-92710000D03*
X137160000Y-92710000D03*
X134620000Y-92710000D03*
X132080000Y-92710000D03*
X129540000Y-92710000D03*
X142240000Y-90170000D03*
X139700000Y-90170000D03*
X137160000Y-90170000D03*
X134620000Y-90170000D03*
X132080000Y-90170000D03*
X129540000Y-90170000D03*
X142240000Y-87630000D03*
X139700000Y-87630000D03*
X137160000Y-87630000D03*
X134620000Y-87630000D03*
X132080000Y-87630000D03*
X129540000Y-87630000D03*
X142240000Y-80010000D03*
X139700000Y-80010000D03*
X137160000Y-80010000D03*
X134620000Y-80010000D03*
X132080000Y-80010000D03*
X129540000Y-80010000D03*
X142240000Y-77470000D03*
X139700000Y-77470000D03*
X137160000Y-77470000D03*
X134620000Y-77470000D03*
X132080000Y-77470000D03*
X129540000Y-77470000D03*
X142240000Y-74930000D03*
X139700000Y-74930000D03*
X137160000Y-74930000D03*
X134620000Y-74930000D03*
X132080000Y-74930000D03*
X129540000Y-74930000D03*
X142240000Y-72390000D03*
X139700000Y-72390000D03*
X137160000Y-72390000D03*
X134620000Y-72390000D03*
X132080000Y-72390000D03*
X129540000Y-72390000D03*
X142240000Y-69850000D03*
X139700000Y-69850000D03*
X137160000Y-69850000D03*
X134620000Y-69850000D03*
X132080000Y-69850000D03*
X129540000Y-69850000D03*
X142240000Y-67310000D03*
X139700000Y-67310000D03*
X137160000Y-67310000D03*
X134620000Y-67310000D03*
X132080000Y-67310000D03*
X129540000Y-67310000D03*
X142240000Y-64770000D03*
X139700000Y-64770000D03*
X137160000Y-64770000D03*
X134620000Y-64770000D03*
X132080000Y-64770000D03*
X129540000Y-64770000D03*
X137160000Y-62230000D03*
X134620000Y-62230000D03*
X132080000Y-62230000D03*
X129540000Y-62230000D03*
X137160000Y-59690000D03*
X134620000Y-59690000D03*
X132080000Y-59690000D03*
D13*
X154940000Y-84455000D03*
D14*
X152440000Y-84455000D03*
D15*
X154940000Y-71501000D03*
D16*
X152400000Y-71501000D03*
D13*
X169291000Y-77470000D03*
D17*
X169291000Y-74970000D03*
D13*
X154940000Y-105664000D03*
D17*
X157440000Y-105664000D03*
D18*
X145796000Y-64008000D03*
D19*
X148336000Y-64008000D03*
D18*
X152400000Y-107950000D03*
D19*
X149860000Y-107950000D03*
D20*
X185420000Y-90170000D03*
D21*
X182880000Y-90170000D03*
X180340000Y-90170000D03*
X177800000Y-90170000D03*
X175260000Y-90170000D03*
X172720000Y-90170000D03*
X170180000Y-90170000D03*
X167640000Y-90170000D03*
X165100000Y-90170000D03*
X162560000Y-90170000D03*
X160020000Y-90170000D03*
X157480000Y-90170000D03*
X154940000Y-90170000D03*
X152400000Y-90170000D03*
X152400000Y-97790000D03*
X154940000Y-97790000D03*
X157480000Y-97790000D03*
X160020000Y-97790000D03*
X162560000Y-97790000D03*
X165100000Y-97790000D03*
X167640000Y-97790000D03*
X170180000Y-97790000D03*
X172720000Y-97790000D03*
X175260000Y-97790000D03*
X177800000Y-97790000D03*
X180340000Y-97790000D03*
X182880000Y-97790000D03*
X185420000Y-97790000D03*
D22*
X160020000Y-107950000D03*
X162560000Y-107950000D03*
X165100000Y-107950000D03*
X167640000Y-107950000D03*
X170180000Y-107950000D03*
X172720000Y-107950000D03*
X177800000Y-107950000D03*
X180340000Y-107950000D03*
X182880000Y-107950000D03*
X185420000Y-107950000D03*
X187960000Y-107950000D03*
X190500000Y-107950000D03*
D23*
X172720000Y-80010000D03*
D24*
X172720000Y-77470000D03*
X172720000Y-74930000D03*
X172720000Y-72390000D03*
X172720000Y-69850000D03*
X172720000Y-67310000D03*
D22*
X190500000Y-59690000D03*
X187960000Y-59690000D03*
X185420000Y-59690000D03*
X182880000Y-59690000D03*
X180340000Y-59690000D03*
X177800000Y-59690000D03*
X175260000Y-59690000D03*
X172720000Y-59690000D03*
X168656000Y-59690000D03*
X166116000Y-59690000D03*
X163576000Y-59690000D03*
X161036000Y-59690000D03*
X158496000Y-59690000D03*
X155956000Y-59690000D03*
X153416000Y-59690000D03*
X150876000Y-59690000D03*
D25*
X162560000Y-105410000D03*
X172720000Y-105410000D03*
D26*
X154940000Y-80645000D03*
D27*
X152400000Y-80645000D03*
D26*
X154940000Y-77470000D03*
D27*
X152400000Y-77470000D03*
D28*
X190627000Y-80010000D03*
D29*
X193167000Y-80010000D03*
X190627000Y-82550000D03*
X193167000Y-82550000D03*
X190627000Y-85090000D03*
X193167000Y-85090000D03*
D30*
X163957000Y-66167000D03*
X153797000Y-66167000D03*
X147320000Y-102870000D03*
X157480000Y-102870000D03*
X159131000Y-80645000D03*
X169291000Y-80645000D03*
D17*
X193040000Y-88900000D03*
X193040000Y-95400000D03*
D31*
X166469060Y-85090000D03*
X171350940Y-85090000D03*
X168910000Y-85090000D03*
D12*
X129540000Y-59690000D03*
D32*
X175260000Y-105156000D03*
X151892000Y-87376000D03*
X166370000Y-95885000D03*
X163576000Y-94488000D03*
X167640000Y-94488000D03*
X169037000Y-95250000D03*
X164084000Y-95250000D03*
D33*
X154940000Y-71501000D02*
X169291000Y-71501000D01*
X169291000Y-71501000D02*
X172720000Y-74930000D01*
X193167000Y-80010000D02*
X193040000Y-80010000D01*
X193040000Y-80010000D02*
X191389000Y-78359000D01*
X185674000Y-74930000D02*
X172720000Y-74930000D01*
X189103000Y-78359000D02*
X185674000Y-74930000D01*
X191389000Y-78359000D02*
X189103000Y-78359000D01*
X154940000Y-80645000D02*
X159131000Y-80645000D01*
X154940000Y-84455000D02*
X154940000Y-85725000D01*
X148590000Y-85090000D02*
X144780000Y-85090000D01*
X149860000Y-86360000D02*
X148590000Y-85090000D01*
X154305000Y-86360000D02*
X149860000Y-86360000D01*
X154940000Y-85725000D02*
X154305000Y-86360000D01*
X142240000Y-85090000D02*
X144780000Y-85090000D01*
X144780000Y-85090000D02*
X144780000Y-87630000D01*
X144780000Y-87630000D02*
X144780000Y-90170000D01*
X144780000Y-90170000D02*
X144780000Y-92710000D01*
X144780000Y-92710000D02*
X144780000Y-95250000D01*
X144780000Y-95250000D02*
X144780000Y-97790000D01*
X144780000Y-97790000D02*
X144780000Y-100330000D01*
X144780000Y-100330000D02*
X144780000Y-102870000D01*
X144780000Y-102870000D02*
X144780000Y-105410000D01*
X144780000Y-105410000D02*
X144780000Y-107950000D01*
X144780000Y-107950000D02*
X149860000Y-107950000D01*
X129540000Y-85090000D02*
X132080000Y-85090000D01*
X132080000Y-85090000D02*
X134620000Y-85090000D01*
X134620000Y-85090000D02*
X137160000Y-85090000D01*
X137160000Y-85090000D02*
X139700000Y-85090000D01*
X139700000Y-85090000D02*
X142240000Y-85090000D01*
X154940000Y-77470000D02*
X154940000Y-80645000D01*
X154940000Y-77470000D02*
X154940000Y-71501000D01*
X149860000Y-107950000D02*
X149860000Y-108585000D01*
X149860000Y-108585000D02*
X151003000Y-109728000D01*
X163322000Y-109728000D02*
X165100000Y-107950000D01*
X151003000Y-109728000D02*
X163322000Y-109728000D01*
X165100000Y-97790000D02*
X165100000Y-107950000D01*
X172720000Y-80010000D02*
X172720000Y-81280000D01*
X172720000Y-81280000D02*
X168910000Y-85090000D01*
X172593000Y-80137000D02*
X172720000Y-80010000D01*
X168910000Y-85090000D02*
X168783000Y-85090000D01*
X168783000Y-85090000D02*
X166624000Y-82931000D01*
X166624000Y-82931000D02*
X152400000Y-82931000D01*
X152400000Y-80645000D02*
X152400000Y-82931000D01*
X152400000Y-82931000D02*
X152400000Y-84415000D01*
X152400000Y-84415000D02*
X152440000Y-84455000D01*
X172720000Y-80010000D02*
X172720000Y-77470000D01*
X145796000Y-64008000D02*
X145796000Y-62484000D01*
X151384000Y-61722000D02*
X153416000Y-59690000D01*
X146558000Y-61722000D02*
X151384000Y-61722000D01*
X145796000Y-62484000D02*
X146558000Y-61722000D01*
X144780000Y-67310000D02*
X144780000Y-65024000D01*
X144780000Y-65024000D02*
X145796000Y-64008000D01*
X144780000Y-82550000D02*
X147320000Y-82550000D01*
X149225000Y-80645000D02*
X152400000Y-80645000D01*
X147320000Y-82550000D02*
X149225000Y-80645000D01*
X142240000Y-82550000D02*
X144780000Y-82550000D01*
X144780000Y-82550000D02*
X144780000Y-80010000D01*
X144780000Y-80010000D02*
X144780000Y-77470000D01*
X144780000Y-77470000D02*
X144780000Y-74930000D01*
X144780000Y-74930000D02*
X144780000Y-72390000D01*
X144780000Y-72390000D02*
X144780000Y-69850000D01*
X144780000Y-69850000D02*
X144780000Y-67310000D01*
X142240000Y-82550000D02*
X139700000Y-82550000D01*
X139700000Y-82550000D02*
X137160000Y-82550000D01*
X137160000Y-82550000D02*
X134620000Y-82550000D01*
X134620000Y-82550000D02*
X132080000Y-82550000D01*
X132080000Y-82550000D02*
X129540000Y-82550000D01*
X167640000Y-90170000D02*
X167640000Y-92456000D01*
X170180000Y-94996000D02*
X170180000Y-97790000D01*
X167640000Y-92456000D02*
X170180000Y-94996000D01*
X168910000Y-85090000D02*
X168910000Y-85217000D01*
X168910000Y-85217000D02*
X171196000Y-87503000D01*
X191643000Y-87503000D02*
X193040000Y-88900000D01*
X171196000Y-87503000D02*
X191643000Y-87503000D01*
X152440000Y-80685000D02*
X152400000Y-80645000D01*
X152400000Y-71501000D02*
X152400000Y-77470000D01*
X152400000Y-77470000D02*
X152400000Y-80645000D01*
X167640000Y-107950000D02*
X170180000Y-107950000D01*
D34*
X169291000Y-80645000D02*
X169291000Y-77470000D01*
X169291000Y-77470000D02*
X170561000Y-76200000D01*
X170561000Y-76200000D02*
X174117000Y-76200000D01*
X174117000Y-76200000D02*
X183007000Y-85090000D01*
X183007000Y-85090000D02*
X190627000Y-85090000D01*
X186586000Y-101854000D02*
X193040000Y-95400000D01*
X178562000Y-101854000D02*
X186586000Y-101854000D01*
X175260000Y-105156000D02*
X178562000Y-101854000D01*
X190627000Y-85090000D02*
X190627000Y-85471000D01*
X190627000Y-85471000D02*
X192024000Y-86868000D01*
X192024000Y-86868000D02*
X193929000Y-86868000D01*
X193929000Y-86868000D02*
X194945000Y-87884000D01*
X194945000Y-87884000D02*
X194945000Y-93495000D01*
X194945000Y-93495000D02*
X193040000Y-95400000D01*
X148336000Y-64008000D02*
X151384000Y-64008000D01*
X151384000Y-64008000D02*
X153797000Y-66167000D01*
X172720000Y-72390000D02*
X177800000Y-72390000D01*
X177800000Y-72390000D02*
X190500000Y-59690000D01*
X172720000Y-69850000D02*
X177800000Y-69850000D01*
X177800000Y-69850000D02*
X187960000Y-59690000D01*
X152400000Y-97790000D02*
X152400000Y-93345000D01*
X150495000Y-88773000D02*
X151892000Y-87376000D01*
X150495000Y-91440000D02*
X150495000Y-88773000D01*
X152400000Y-93345000D02*
X150495000Y-91440000D01*
X159385000Y-95885000D02*
X157480000Y-97790000D01*
X166370000Y-95885000D02*
X159385000Y-95885000D01*
X167640000Y-94488000D02*
X163576000Y-94488000D01*
X164084000Y-95250000D02*
X169037000Y-95250000D01*
X155956000Y-59690000D02*
X159258000Y-62992000D01*
X160782000Y-62992000D02*
X163957000Y-65913000D01*
X159258000Y-62992000D02*
X160782000Y-62992000D01*
X163957000Y-65913000D02*
X163957000Y-66167000D01*
X162560000Y-105410000D02*
X162560000Y-107950000D01*
X172720000Y-105410000D02*
X172720000Y-107950000D01*
M02*
